<svg width="142" height="170" viewBox="0 0 142 170" fill="none" xmlns="http://www.w3.org/2000/svg">
<path fill-rule="evenodd" clip-rule="evenodd" d="M101.989 105.062C102.859 107.887 103.328 110.889 103.328 114C103.328 130.75 89.7496 144.328 73 144.328C56.2504 144.328 42.6721 130.75 42.6721 114C42.6721 97.2504 56.2504 83.6721 73 83.6721C80.7936 83.6721 87.9007 86.6119 93.2726 91.4431C95.2931 90.1934 97.3004 89.0337 99.2843 87.959C92.5793 81.1917 83.2791 77 73 77C52.5655 77 36 93.5655 36 114C36 134.435 52.5655 151 73 151C93.4345 151 110 134.435 110 114C110 109.091 109.044 104.405 107.308 100.118C105.516 101.698 103.739 103.354 101.989 105.062Z" fill="#C9C1EF"/>
<path d="M73.5946 138L54 110.1C59.9568 108.24 69.8063 116.3 73.5946 119.012C88.6432 90.1825 124.802 78.325 141 76C110.276 83.13 83.2613 120.304 73.5946 138Z" fill="#77F48B"/>
<path fill-rule="evenodd" clip-rule="evenodd" d="M129 114C129 144.928 103.928 170 73 170C42.0721 170 17 144.928 17 114C17 83.0721 42.0721 58 73 58C89.936 58 105.116 65.5181 115.385 77.3989C112.361 78.8004 109.254 80.3949 106.103 82.2011C97.7504 73.5084 86.007 68.0984 73 68.0984C47.6492 68.0984 27.0984 88.6492 27.0984 114C27.0984 139.351 47.6492 159.902 73 159.902C98.3508 159.902 118.902 139.351 118.902 114C118.902 107.183 117.416 100.714 114.75 94.8977C117.369 92.4972 120.032 90.2337 122.705 88.1794C126.727 95.9056 129 104.687 129 114Z" fill="#A08DFF"/>
<path fill-rule="evenodd" clip-rule="evenodd" d="M23 70C39 54 52.5 46.5 73 46.5C93.5 46.5 107 54 123 70L142 38L73 0L3.99999 38V87.6569L0 91.6569L5.65685 97.3137L11.3137 91.6569L6.99999 87.3431V43.0526L23 70Z" fill="#A08DFF"/>
</svg>
