<svg width="494" height="236" viewBox="0 0 494 236" fill="none" xmlns="http://www.w3.org/2000/svg">
<g clip-path="url(#clip0_642_2)">
<path d="M83.4999 209C122.436 209 154 206.09 154 202.5C154 198.91 122.436 196 83.4999 196C44.5638 196 12.9999 198.91 12.9999 202.5C12.9999 206.09 44.5638 209 83.4999 209Z" fill="black" fill-opacity="0.24"/>
<path fill-rule="evenodd" clip-rule="evenodd" d="M82.9999 94C89.6687 94 95.9255 95.7643 101.329 98.8516C98.9943 99.9634 96.653 101.286 94.3187 102.855C90.8213 101.447 87.0011 100.672 82.9999 100.672C66.2502 100.672 52.672 114.25 52.672 131C52.672 136.935 54.3767 142.471 57.3231 147.147C55.6445 148.593 53.9048 150.011 52.1177 151.386C48.2512 145.541 45.9999 138.533 45.9999 131C45.9999 110.566 62.5653 94 82.9999 94ZM63.6555 162.547C65.7859 161.352 67.9098 159.983 70.0157 158.416C73.9517 160.283 78.3538 161.328 82.9999 161.328C99.7495 161.328 113.328 147.75 113.328 131C113.328 124.274 111.138 118.059 107.433 113.03C109.164 111.644 110.943 110.299 112.759 109.01C117.309 115.157 120 122.764 120 131C120 151.435 103.434 168 82.9999 168C75.909 168 69.2841 166.005 63.6555 162.547Z" fill="#C9C1EF"/>
<path d="M78.4242 141.882C76.0076 131.697 78.4356 130.979 54.8332 111.23C63.88 110.836 76.1006 119.977 79.6983 122.937C96.6476 95.182 119.744 96.8783 136.062 95.6455C104.929 100.698 89.2565 124.875 78.4242 141.882Z" fill="#F47777"/>
<path d="M82.6378 121.118C85.0544 131.303 82.6263 132.021 106.229 151.77C97.1819 152.164 84.9614 143.023 81.3637 140.063C64.4143 167.818 41.3176 166.122 24.9999 167.354C56.1334 162.302 71.8055 138.125 82.6378 121.118Z" fill="#F47777"/>
<path d="M75.4999 182V203H63.9999" stroke="#A08DFF" stroke-width="4" stroke-linecap="round"/>
<path d="M89.4999 182V203H101" stroke="#A08DFF" stroke-width="4" stroke-linecap="round"/>
<path d="M84.3052 186.975C115.219 186.056 139.535 160.249 138.615 129.335C138.291 118.43 134.87 108.346 129.22 99.9009C126.164 101.275 123.113 102.823 120.129 104.505C125.171 111.625 128.243 120.26 128.521 129.635C129.275 154.975 109.345 176.128 84.0049 176.881C72.6298 177.22 62.0983 173.39 53.8772 166.773C49.8603 168.122 45.9106 169.029 42.0873 169.62C52.6745 180.73 67.7581 187.467 84.3052 186.975Z" fill="#A08DFF"/>
<path d="M111.7 95.4672C103.436 88.7032 92.7877 84.7762 81.2754 85.1187C55.9358 85.8724 36.0051 107.025 36.7588 132.365C37.0211 141.184 39.7544 149.348 44.2751 156.213C41.4746 158.166 38.6179 159.989 35.7456 161.623C30.2836 153.277 26.9832 143.366 26.6649 132.665C25.7453 101.751 50.0608 75.9443 80.9751 75.0248C97.8174 74.5238 113.144 81.5129 123.755 92.9786C119.843 93.4711 115.801 94.2599 111.7 95.4672Z" fill="#A08DFF"/>
<path d="M30.9999 87C46.9999 71 60.4999 63.5 80.9999 63.5C101.5 63.5 115 71 131 87L150 55L80.9999 17L11.9999 55L30.9999 87Z" fill="#A08DFF"/>
<path d="M11.9999 55H14.9999V106H11.9999V55Z" fill="#A08DFF"/>
<path d="M13.6567 103L19.3136 108.657L13.6567 114.314L7.99985 108.657L13.6567 103Z" fill="#A08DFF"/>
<path d="M138.5 131.575C136.5 130.075 135.667 131.908 135 132.575L143.5 161.075C145.1 165.875 146.833 165.075 147.5 164.075L157 145.075L163.47 148.484C165.22 148.109 165.855 147.54 166 145.5L157 140.408C155.301 140.026 154.583 140.331 153.723 141.778L146.5 157.075L138.5 131.575Z" fill="#A08DFF"/>
<path d="M27.5 131.575C29.5 130.075 30.3333 131.908 31 132.575L22.5 161.075C20.9 165.875 19.1667 165.075 18.5 164.075L9 145.075L2.52992 148.484C0.779779 148.109 0.144463 147.54 0 145.5L9 140.408C10.6984 140.026 11.4172 140.331 12.2767 141.778L19.5 157.075L27.5 131.575Z" fill="#A08DFF"/>
</g>
<g filter="url(#filter0_d_642_2)">
<path d="M232.271 188V173.666L245.994 171.044V157.846H193.028L191.979 145.872L245.557 60.7422H269.68V141.589H284.8V157.846H269.68V171.044L283.402 173.666V188H232.271ZM214.704 141.589H245.994V92.7314L245.469 92.5566L243.459 96.4023L214.704 141.589ZM341.437 189.835C328.327 189.835 317.926 185.494 310.234 176.812C302.601 168.072 298.785 155.37 298.785 138.705V110.125C298.785 93.4598 302.601 80.7573 310.234 72.0171C317.868 63.2769 328.21 58.9067 341.262 58.9067C354.314 58.9067 364.657 63.2769 372.29 72.0171C379.981 80.7573 383.827 93.4598 383.827 110.125V138.705C383.827 155.428 380.011 168.131 372.377 176.812C364.803 185.494 354.489 189.835 341.437 189.835ZM341.437 171.568C347.555 171.568 352.188 169.15 355.334 164.314C358.539 159.419 360.141 151.757 360.141 141.327V107.328C360.141 97.0142 358.51 89.4393 355.247 84.603C352.042 79.7085 347.38 77.2612 341.262 77.2612C335.144 77.2612 330.483 79.7085 327.278 84.603C324.073 89.4393 322.471 97.0142 322.471 107.328V141.327C322.471 151.757 324.073 159.419 327.278 164.314C330.541 169.15 335.261 171.568 341.437 171.568ZM436.269 188V173.666L449.991 171.044V157.846H397.025L395.976 145.872L449.554 60.7422H473.677V141.589H488.797V157.846H473.677V171.044L487.399 173.666V188H436.269ZM418.701 141.589H449.991V92.7314L449.466 92.5566L447.456 96.4023L418.701 141.589Z" fill="#A08DFF"/>
</g>
<defs>
<filter id="filter0_d_642_2" x="191.979" y="58.9067" width="300.818" height="134.929" filterUnits="userSpaceOnUse" color-interpolation-filters="sRGB">
<feFlood flood-opacity="0" result="BackgroundImageFix"/>
<feColorMatrix in="SourceAlpha" type="matrix" values="0 0 0 0 0 0 0 0 0 0 0 0 0 0 0 0 0 0 127 0" result="hardAlpha"/>
<feOffset dx="4" dy="4"/>
<feComposite in2="hardAlpha" operator="out"/>
<feColorMatrix type="matrix" values="0 0 0 0 0 0 0 0 0 0 0 0 0 0 0 0 0 0 0.25 0"/>
<feBlend mode="normal" in2="BackgroundImageFix" result="effect1_dropShadow_642_2"/>
<feBlend mode="normal" in="SourceGraphic" in2="effect1_dropShadow_642_2" result="shape"/>
</filter>
<clipPath id="clip0_642_2">
<rect width="166" height="192" fill="white" transform="translate(0 17)"/>
</clipPath>
</defs>
</svg>
