<svg width="1344" height="1344" viewBox="0 0 1344 1344" fill="none" xmlns="http://www.w3.org/2000/svg">
<path d="M1222.53 424.139H864V1053.24H1222.53V424.139Z" fill="#F5F5F5"/>
<path d="M1196.53 448.869H890.504V1053.24H1196.53V448.869Z" fill="#D3CBF9"/>
<path d="M899.105 1055.93C898.569 1055.93 898.038 1055.82 897.546 1055.6C897.061 1055.41 896.621 1055.12 896.256 1054.74C895.865 1054.38 895.562 1053.93 895.369 1053.43C895.175 1052.94 895.075 1052.42 895.073 1051.9C895.074 1051.3 895.206 1050.71 895.461 1050.17C895.716 1049.64 896.086 1049.16 896.546 1048.78C897.006 1048.41 897.544 1048.13 898.121 1047.99C898.699 1047.84 899.301 1047.83 899.885 1047.94L900.637 1048.16L901.336 1048.54C901.554 1048.69 901.761 1048.86 901.955 1049.05C902.145 1049.23 902.308 1049.44 902.438 1049.66C902.595 1049.88 902.722 1050.11 902.815 1050.36C902.923 1050.6 903.004 1050.86 903.057 1051.12C903.084 1051.37 903.084 1051.64 903.057 1051.9C903.059 1052.42 902.949 1052.95 902.734 1053.43C902.541 1053.92 902.248 1054.37 901.874 1054.74C901.135 1055.48 900.145 1055.9 899.105 1055.93Z" fill="white"/>
<path d="M895.02 952.869C895.023 952.337 895.132 951.811 895.339 951.322C895.547 950.832 895.849 950.388 896.229 950.016C896.609 949.644 897.058 949.351 897.552 949.153C898.046 948.955 898.574 948.857 899.105 948.864C900.175 948.864 901.2 949.289 901.956 950.045C902.713 950.801 903.137 951.827 903.137 952.896C903.137 953.965 902.713 954.991 901.956 955.747C901.2 956.503 900.175 956.928 899.105 956.928C898.569 956.935 898.037 956.835 897.54 956.634C897.042 956.433 896.59 956.135 896.21 955.757C895.829 955.379 895.528 954.929 895.324 954.433C895.119 953.937 895.016 953.405 895.02 952.869ZM895.02 853.87C895.02 852.801 895.444 851.775 896.201 851.019C896.957 850.263 897.982 849.838 899.052 849.838C900.121 849.838 901.146 850.263 901.903 851.019C902.659 851.775 903.084 852.801 903.084 853.87C903.084 854.939 902.659 855.965 901.903 856.721C901.146 857.477 900.121 857.902 899.052 857.902C897.982 857.902 896.957 857.477 896.201 856.721C895.444 855.965 895.02 854.939 895.02 853.87ZM895.02 754.844C895.02 753.775 895.444 752.749 896.201 751.993C896.957 751.237 897.982 750.812 899.052 750.812C900.121 750.812 901.146 751.237 901.903 751.993C902.659 752.749 903.084 753.775 903.084 754.844C903.084 755.913 902.659 756.939 901.903 757.695C901.146 758.451 900.121 758.876 899.052 758.876C898.522 758.876 897.998 758.772 897.509 758.569C897.019 758.367 896.575 758.07 896.201 757.695C895.826 757.321 895.529 756.876 895.327 756.387C895.124 755.898 895.02 755.374 895.02 754.844ZM895.02 655.818C895.02 654.749 895.444 653.723 896.201 652.967C896.957 652.211 897.982 651.786 899.052 651.786C900.121 651.786 901.146 652.211 901.903 652.967C902.659 653.723 903.084 654.749 903.084 655.818C903.084 656.888 902.659 657.913 901.903 658.669C901.146 659.425 900.121 659.85 899.052 659.85C897.992 659.85 896.974 659.433 896.219 658.688C895.465 657.944 895.034 656.932 895.02 655.872V655.818ZM895.02 556.819C895.02 555.75 895.444 554.724 896.201 553.968C896.957 553.212 897.982 552.787 899.052 552.787C900.121 552.787 901.146 553.212 901.903 553.968C902.659 554.724 903.084 555.75 903.084 556.819C903.084 557.888 902.659 558.914 901.903 559.67C901.146 560.426 900.121 560.851 899.052 560.851C898.522 560.851 897.998 560.747 897.509 560.544C897.019 560.342 896.575 560.045 896.201 559.67C895.826 559.296 895.529 558.851 895.327 558.362C895.124 557.873 895.02 557.349 895.02 556.819Z" fill="white"/>
<path d="M860.16 461.825C859.63 461.828 859.105 461.724 858.616 461.521C858.126 461.318 857.683 461.019 857.31 460.642C857.112 460.462 856.94 460.253 856.8 460.024C856.658 459.81 856.533 459.585 856.423 459.352C856.313 459.105 856.24 458.842 856.208 458.573C856.181 458.314 856.181 458.052 856.208 457.793C856.215 456.725 856.64 455.703 857.391 454.944C857.57 454.753 857.768 454.582 857.982 454.433C858.201 454.29 858.436 454.173 858.681 454.084C858.924 453.979 859.176 453.898 859.434 453.842C859.957 453.735 860.497 453.735 861.02 453.842C861.278 453.898 861.53 453.979 861.773 454.084C862.018 454.173 862.253 454.29 862.471 454.433C862.689 454.589 862.896 454.759 863.09 454.944C863.841 455.703 864.266 456.725 864.272 457.793C864.3 458.052 864.3 458.314 864.272 458.573C864.216 458.84 864.135 459.101 864.03 459.352C863.932 459.59 863.805 459.816 863.654 460.024C863.524 460.253 863.361 460.461 863.17 460.642C862.775 461.034 862.305 461.341 861.787 461.544C861.269 461.748 860.716 461.843 860.16 461.825Z" fill="white"/>
<path d="M1048 457.793C1048 456.724 1048.42 455.698 1049.18 454.942C1049.93 454.186 1050.96 453.761 1052.03 453.761C1053.1 453.761 1054.12 454.186 1054.88 454.942C1055.64 455.698 1056.06 456.724 1056.06 457.793C1056.06 458.863 1055.64 459.888 1054.88 460.644C1054.12 461.4 1053.1 461.825 1052.03 461.825C1050.96 461.825 1049.93 461.4 1049.18 460.644C1048.42 459.888 1048 458.863 1048 457.793ZM952.036 457.793C952.036 456.724 952.461 455.698 953.217 454.942C953.973 454.186 954.998 453.761 956.068 453.761C957.137 453.761 958.163 454.186 958.919 454.942C959.675 455.698 960.1 456.724 960.1 457.793C960.1 458.863 959.675 459.888 958.919 460.644C958.163 461.4 957.137 461.825 956.068 461.825C954.998 461.825 953.973 461.4 953.217 460.644C952.461 459.888 952.036 458.863 952.036 457.793Z" fill="white"/>
<path d="M1147.99 461.825C1147.73 461.852 1147.47 461.852 1147.21 461.825L1146.46 461.61L1145.76 461.234C1145.54 461.078 1145.34 460.908 1145.14 460.723C1144.39 459.968 1143.96 458.943 1143.96 457.874C1143.97 456.806 1144.39 455.783 1145.14 455.025C1145.33 454.841 1145.54 454.678 1145.76 454.541C1145.97 454.379 1146.21 454.252 1146.46 454.164C1146.7 454.056 1146.95 453.975 1147.21 453.922C1147.73 453.815 1148.27 453.815 1148.8 453.922L1149.55 454.164C1149.79 454.253 1150.02 454.38 1150.22 454.541C1150.45 454.671 1150.66 454.834 1150.84 455.025C1151.59 455.783 1152.02 456.806 1152.02 457.874C1152.02 458.943 1151.6 459.968 1150.84 460.723C1150.65 460.914 1150.45 461.085 1150.22 461.234C1150.01 461.375 1149.78 461.501 1149.55 461.61L1148.8 461.825C1148.53 461.852 1148.26 461.852 1147.99 461.825Z" fill="white"/>
<path d="M1182.9 952.869C1182.9 951.8 1183.33 950.774 1184.09 950.018C1184.84 949.262 1185.87 948.837 1186.94 948.837C1188.01 948.837 1189.03 949.262 1189.79 950.018C1190.54 950.774 1190.97 951.8 1190.97 952.869C1190.97 953.938 1190.54 954.964 1189.79 955.72C1189.03 956.476 1188.01 956.901 1186.94 956.901C1185.87 956.901 1184.84 956.476 1184.09 955.72C1183.33 954.964 1182.9 953.938 1182.9 952.869ZM1182.9 853.87C1182.9 852.801 1183.33 851.775 1184.09 851.019C1184.84 850.263 1185.87 849.838 1186.94 849.838C1188.01 849.838 1189.03 850.263 1189.79 851.019C1190.54 851.775 1190.97 852.801 1190.97 853.87C1190.97 854.939 1190.54 855.965 1189.79 856.721C1189.03 857.477 1188.01 857.902 1186.94 857.902C1185.87 857.902 1184.84 857.477 1184.09 856.721C1183.33 855.965 1182.9 854.939 1182.9 853.87ZM1182.9 754.844C1182.9 753.775 1183.33 752.749 1184.09 751.993C1184.84 751.237 1185.87 750.812 1186.94 750.812C1188.01 750.812 1189.03 751.237 1189.79 751.993C1190.54 752.749 1190.97 753.775 1190.97 754.844C1190.97 755.913 1190.54 756.939 1189.79 757.695C1189.03 758.451 1188.01 758.876 1186.94 758.876C1186.41 758.876 1185.88 758.772 1185.39 758.569C1184.9 758.367 1184.46 758.07 1184.09 757.695C1183.71 757.321 1183.41 756.876 1183.21 756.387C1183.01 755.898 1182.9 755.374 1182.9 754.844ZM1182.9 655.818C1182.9 654.749 1183.33 653.723 1184.09 652.967C1184.84 652.211 1185.87 651.786 1186.94 651.786C1188.01 651.786 1189.03 652.211 1189.79 652.967C1190.54 653.723 1190.97 654.749 1190.97 655.818C1190.97 656.888 1190.54 657.913 1189.79 658.669C1189.03 659.425 1188.01 659.85 1186.94 659.85C1185.88 659.85 1184.86 659.433 1184.1 658.688C1183.35 657.944 1182.92 656.932 1182.9 655.872V655.818ZM1182.9 556.819C1182.9 555.75 1183.33 554.724 1184.09 553.968C1184.84 553.212 1185.87 552.787 1186.94 552.787C1188.01 552.787 1189.03 553.212 1189.79 553.968C1190.54 554.724 1190.97 555.75 1190.97 556.819C1190.97 557.888 1190.54 558.914 1189.79 559.67C1189.03 560.426 1188.01 560.851 1186.94 560.851C1186.41 560.851 1185.88 560.747 1185.39 560.544C1184.9 560.342 1184.46 560.045 1184.09 559.67C1183.71 559.296 1183.41 558.851 1183.21 558.362C1183.01 557.873 1182.9 557.349 1182.9 556.819Z" fill="white"/>
<path d="M1186.94 1055.93C1186.14 1055.93 1185.36 1055.69 1184.7 1055.25C1184.04 1054.8 1183.52 1054.17 1183.21 1053.44C1182.91 1052.7 1182.83 1051.89 1182.98 1051.11C1183.14 1050.33 1183.52 1049.61 1184.09 1049.05C1184.28 1048.86 1184.49 1048.69 1184.71 1048.54L1185.4 1048.16L1186.16 1047.94C1186.68 1047.84 1187.22 1047.84 1187.74 1047.94L1188.5 1048.16C1188.73 1048.27 1188.95 1048.39 1189.17 1048.54C1189.39 1048.68 1189.6 1048.85 1189.79 1049.05C1190.54 1049.8 1190.97 1050.83 1190.97 1051.9C1190.97 1052.43 1190.87 1052.95 1190.67 1053.44C1190.47 1053.93 1190.16 1054.37 1189.79 1054.74C1189.03 1055.5 1188.01 1055.93 1186.94 1055.93Z" fill="white"/>
<path d="M255.36 1054.26H144.587V1054.93H255.36V1054.26Z" fill="#D3CBF9"/>
<path d="M481.152 1048.88H370.057V1049.56H481.152V1048.88Z" fill="#D3CBF9"/>
<path d="M625.713 1048.88H598.833V1049.56H625.713V1048.88Z" fill="#D3CBF9"/>
<path d="M357.047 1071.84H232.727V1072.51H357.047V1071.84Z" fill="#D3CBF9"/>
<path d="M787.046 1053.91H728.985V1054.58H787.046V1053.91Z" fill="#D3CBF9"/>
<path d="M886.046 1053.91H810.97V1054.58H886.046V1053.91Z" fill="#D3CBF9"/>
<path d="M1248.12 1065.28H1080.28V1065.95H1248.12V1065.28Z" fill="#D3CBF9"/>
<path d="M588.707 302.656H464.871L471.644 225.483H595.454L588.707 302.656Z" fill="#EBEBEB"/>
<path d="M591.207 215L587.82 255.293L584.433 303.731H465.354L472.128 215H591.207Z" fill="#FAFAFA"/>
<path d="M579.836 225.483L586.583 302.656H462.774L456 225.483H466.537L470.193 219.677H503.551L508.335 225.483H579.836Z" fill="#D3CBF9"/>
<path d="M820.766 257H689V388.766H820.766V257Z" fill="#EBEBEB"/>
<path d="M824.126 257H820.766V388.766H824.126V257Z" fill="#D3CBF9"/>
<path d="M808.562 269.204H701.149V376.616H808.562V269.204Z" fill="#F5F5F5"/>
<path d="M702.171 269.204H701.177V376.616H702.171V269.204Z" fill="#D3CBF9"/>
<path d="M755.878 338.42C767.442 338.42 776.817 326.481 776.817 311.755C776.817 297.028 767.442 285.09 755.878 285.09C744.313 285.09 734.938 297.028 734.938 311.755C734.938 326.481 744.313 338.42 755.878 338.42Z" fill="#D3CBF9"/>
<path d="M744.937 351.913H767.006V329.845H744.937V351.913Z" fill="#D3CBF9"/>
<path d="M795.66 376.616H714.805V369.09C714.805 362.217 717.535 355.626 722.395 350.767C727.254 345.907 733.845 343.177 740.717 343.177H769.855C776.728 343.177 783.318 345.907 788.178 350.767C793.037 355.626 795.768 362.217 795.768 369.09V376.616H795.66Z" fill="#D3CBF9"/>
<path d="M712.789 331.78C712.789 336.161 720.853 339.844 720.853 339.844C720.853 339.844 728.917 336.269 728.917 331.78C728.917 329.683 726.014 328.501 724.105 329.092C723.374 329.347 722.701 329.744 722.124 330.261C721.547 330.778 721.079 331.404 720.745 332.103C719.716 330.716 718.358 329.608 716.794 328.877C716.335 328.716 715.844 328.669 715.363 328.739C714.882 328.81 714.425 328.995 714.032 329.281C713.638 329.566 713.32 329.942 713.103 330.378C712.887 330.813 712.779 331.294 712.789 331.78Z" fill="#D3CBF9"/>
<path d="M784.343 312.185C784.343 317.964 794.799 322.641 794.799 322.641C794.799 322.641 805.256 317.964 805.256 312.185C805.256 309.497 801.385 307.911 798.939 308.61C797.094 309.347 795.609 310.774 794.799 312.588C793.436 310.777 791.656 309.32 789.612 308.341C789.006 308.126 788.357 308.063 787.722 308.156C787.086 308.249 786.483 308.495 785.964 308.874C785.445 309.252 785.026 309.752 784.744 310.329C784.461 310.906 784.324 311.543 784.343 312.185Z" fill="#D3CBF9"/>
<path d="M364.981 445.97C358.795 446.839 352.49 445.855 346.863 443.141C341.237 440.428 336.541 436.106 333.371 430.724C330.2 425.341 328.697 419.14 329.051 412.903C329.405 406.666 331.601 400.674 335.36 395.685C339.12 390.696 344.274 386.934 350.172 384.875C356.07 382.816 362.446 382.551 368.493 384.116C374.541 385.68 379.989 389.003 384.149 393.664C388.308 398.324 390.992 404.114 391.861 410.3C393.011 418.592 390.828 427.002 385.79 433.688C380.752 440.374 373.269 444.79 364.981 445.97ZM358.584 400.005C355.681 400.405 352.962 401.657 350.771 403.603C348.581 405.548 347.016 408.1 346.276 410.935C345.535 413.77 345.653 416.761 346.612 419.529C347.572 422.297 349.332 424.719 351.668 426.487C354.004 428.255 356.812 429.291 359.737 429.463C362.662 429.634 365.573 428.935 368.1 427.452C370.627 425.97 372.658 423.771 373.935 421.134C375.213 418.497 375.679 415.541 375.276 412.639C374.729 408.754 372.666 405.244 369.538 402.876C366.409 400.509 362.471 399.476 358.584 400.005Z" fill="#D3CBF9"/>
<path d="M353.141 320.475L341.268 322.134L351.934 398.511L363.808 396.853L353.141 320.475Z" fill="#D3CBF9"/>
<path d="M361.964 308L339.691 311.15L341.369 323.018L363.643 319.869L361.964 308Z" fill="#D3CBF9"/>
<path d="M365.016 325.992L344.064 328.914L345.72 340.788L366.672 337.865L365.016 325.992Z" fill="#D3CBF9"/>
<path d="M368.069 347.517L349.78 350.068L351.436 361.941L369.725 359.391L368.069 347.517Z" fill="#D3CBF9"/>
<path d="M672 1189.68C959.838 1189.68 1193.18 1176.06 1193.18 1159.25C1193.18 1142.45 959.838 1128.83 672 1128.83C384.162 1128.83 150.824 1142.45 150.824 1159.25C150.824 1176.06 384.162 1189.68 672 1189.68Z" fill="black" fill-opacity="0.32"/>
<path d="M495.318 604.56L491.636 920.508C478.626 1025.64 292.267 1109.1 292.267 1109.1C292.267 1109.1 105.881 1025.72 92.7901 920.508L89 604.56L288.181 539L495.318 604.56Z" fill="#F5F5F5"/>
<path d="M469.325 625.771L466.127 909.463C454.783 1001.15 292.24 1073.94 292.24 1073.94C292.24 1073.94 129.697 1001.15 118.38 909.463L114.966 625.771L288.692 568.597L469.325 625.771Z" fill="#D3CBF9"/>
<path d="M457.928 643.673L454.918 904.114C444.166 990.13 291.89 1058.3 291.89 1058.3C291.89 1058.3 139.508 990.049 128.89 904.114L125.691 643.673L288.557 590.074L457.928 643.673Z" stroke="white" stroke-width="3" stroke-linecap="round" stroke-linejoin="round"/>
<path d="M333.286 728.926C358.068 703.039 355.259 660.133 327.012 633.092C298.766 606.052 255.778 605.118 230.997 631.005C206.215 656.892 209.024 699.798 237.27 726.838C265.517 753.878 308.504 754.813 333.286 728.926Z" fill="#A08DFF"/>
<g opacity="0.8">
<path d="M333.286 728.926C358.068 703.039 355.259 660.133 327.012 633.092C298.766 606.052 255.778 605.118 230.997 631.005C206.215 656.892 209.024 699.798 237.27 726.838C265.517 753.878 308.504 754.813 333.286 728.926Z" fill="white"/>
</g>
<path d="M250.549 637.437C249.985 637.437 249.435 637.26 248.977 636.93C248.519 636.6 248.177 636.134 247.999 635.599C247.82 635.064 247.815 634.486 247.983 633.948C248.151 633.409 248.485 632.937 248.936 632.599C257.987 626.102 268.897 622.708 280.036 622.922C280.749 622.922 281.433 623.205 281.937 623.709C282.441 624.213 282.724 624.897 282.724 625.61C282.724 626.323 282.441 627.006 281.937 627.511C281.433 628.015 280.749 628.298 280.036 628.298C270.059 628.078 260.28 631.096 252.162 636.899C251.696 637.248 251.13 637.437 250.549 637.437Z" fill="#A08DFF"/>
<path d="M263.263 729.904C262.822 729.902 262.388 729.791 262 729.582C253.762 725.177 246.614 718.985 241.079 711.459C235.545 703.934 231.763 695.266 230.013 686.09C228.305 678.152 228.384 669.934 230.243 662.031C232.103 654.128 235.697 646.737 240.765 640.394C241.221 639.845 241.877 639.5 242.587 639.434C243.298 639.369 244.006 639.588 244.555 640.044C245.104 640.501 245.449 641.156 245.514 641.867C245.58 642.578 245.36 643.286 244.904 643.835C240.326 649.576 237.084 656.265 235.415 663.417C233.746 670.568 233.691 678.001 235.254 685.176C236.865 693.564 240.325 701.488 245.385 708.37C250.444 715.252 256.974 720.919 264.5 724.958C265.025 725.242 265.441 725.693 265.682 726.239C265.923 726.785 265.976 727.396 265.831 727.976C265.686 728.555 265.352 729.07 264.883 729.438C264.413 729.807 263.834 730.009 263.236 730.012L263.263 729.904Z" fill="#A08DFF"/>
<path d="M290.17 736.92C284.153 736.894 278.177 735.933 272.456 734.071C272.119 733.961 271.807 733.787 271.537 733.556C271.267 733.326 271.046 733.045 270.885 732.73C270.724 732.414 270.627 732.07 270.599 731.716C270.571 731.363 270.613 731.008 270.722 730.67C270.832 730.333 271.006 730.021 271.236 729.751C271.467 729.482 271.748 729.26 272.063 729.099C272.379 728.938 272.723 728.841 273.077 728.813C273.43 728.785 273.785 728.827 274.123 728.937C290.654 734.313 307.158 731.302 319.388 720.873C325.593 715.396 330.282 708.414 333.003 700.598C335.725 692.783 336.387 684.398 334.925 676.252C334.811 675.539 334.985 674.81 335.408 674.225C335.832 673.64 336.47 673.248 337.183 673.134C337.896 673.02 338.625 673.194 339.21 673.617C339.794 674.04 340.187 674.679 340.301 675.392C341.931 684.443 341.19 693.763 338.152 702.443C335.114 711.124 329.882 718.871 322.963 724.932C313.848 732.773 302.193 737.034 290.17 736.92Z" fill="#A08DFF"/>
<path d="M335.382 669.371C334.812 669.368 334.257 669.185 333.798 668.847C333.339 668.508 333 668.033 332.829 667.489C330.356 659.856 326.308 652.827 320.946 646.858C315.583 640.889 309.027 636.114 301.701 632.841C301.046 632.556 300.53 632.021 300.268 631.356C300.006 630.691 300.019 629.948 300.304 629.293C300.589 628.637 301.123 628.121 301.788 627.859C302.454 627.597 303.196 627.61 303.852 627.895C311.874 631.481 319.054 636.713 324.926 643.251C330.797 649.79 335.229 657.489 337.936 665.849C338.156 666.527 338.099 667.264 337.776 667.899C337.454 668.534 336.892 669.015 336.215 669.236C335.945 669.318 335.665 669.363 335.382 669.371Z" fill="#A08DFF"/>
<path d="M293.019 629.803C292.814 629.831 292.606 629.831 292.401 629.803C288.356 628.861 284.216 628.383 280.063 628.378C279.35 628.378 278.666 628.095 278.162 627.591C277.658 627.087 277.375 626.403 277.375 625.69C277.375 624.978 277.658 624.294 278.162 623.79C278.666 623.286 279.35 623.002 280.063 623.002C284.589 623.016 289.098 623.548 293.503 624.588C294.216 624.67 294.867 625.032 295.313 625.594C295.759 626.156 295.964 626.873 295.882 627.585C295.8 628.298 295.438 628.95 294.876 629.396C294.314 629.842 293.598 630.046 292.885 629.964L293.019 629.803Z" fill="#A08DFF"/>
<path d="M245.603 694.019C245.054 694.021 244.517 693.855 244.065 693.542C243.614 693.23 243.268 692.787 243.076 692.272C240.557 685.768 239.67 678.745 240.495 671.819C241.32 664.893 243.83 658.274 247.807 652.544C251.566 647.115 256.6 642.692 262.468 639.665C268.336 636.637 274.858 635.097 281.461 635.179C282.174 635.179 282.857 635.462 283.361 635.966C283.866 636.471 284.149 637.154 284.149 637.867C284.149 638.58 283.866 639.264 283.361 639.768C282.857 640.272 282.174 640.555 281.461 640.555C275.724 640.488 270.058 641.824 264.956 644.448C259.854 647.071 255.471 650.903 252.188 655.608C248.701 660.655 246.507 666.481 245.8 672.574C245.092 678.667 245.892 684.841 248.13 690.552C248.373 691.219 248.343 691.955 248.046 692.599C247.749 693.244 247.209 693.745 246.544 693.993C246.234 694.053 245.916 694.062 245.603 694.019Z" fill="#A08DFF"/>
<path d="M288.235 724.716C280.178 724.447 272.305 722.237 265.285 718.273C258.266 714.309 252.307 708.709 247.915 701.949C247.588 701.355 247.498 700.66 247.663 700.003C247.827 699.345 248.234 698.774 248.801 698.404C249.369 698.033 250.055 697.891 250.723 698.005C251.391 698.119 251.991 698.481 252.404 699.019C256.307 705.033 261.601 710.019 267.837 713.556C274.074 717.093 281.07 719.077 288.235 719.34C288.948 719.34 289.631 719.624 290.135 720.128C290.639 720.632 290.923 721.316 290.923 722.028C290.923 722.741 290.639 723.425 290.135 723.929C289.631 724.433 288.948 724.716 288.235 724.716Z" fill="#A08DFF"/>
<path d="M298.288 723.561C297.674 723.579 297.072 723.386 296.583 723.014C296.094 722.642 295.747 722.114 295.6 721.518C295.429 720.826 295.54 720.095 295.908 719.486C296.276 718.876 296.871 718.437 297.562 718.265C319.362 712.889 325.007 693.778 323.206 679.101C320.867 659.963 305.761 640.582 281.38 640.555C280.667 640.555 279.984 640.272 279.48 639.768C278.976 639.264 278.692 638.58 278.692 637.867C278.692 637.154 278.976 636.471 279.48 635.966C279.984 635.462 280.667 635.179 281.38 635.179C308.879 635.179 325.921 656.952 328.555 678.456C331.243 700.632 319.604 718.319 298.852 723.48C298.668 723.527 298.478 723.554 298.288 723.561Z" fill="#A08DFF"/>
<path d="M270.467 655.393C269.957 655.389 269.459 655.241 269.031 654.965C268.603 654.688 268.262 654.296 268.048 653.834C267.745 653.189 267.711 652.45 267.953 651.779C268.195 651.109 268.693 650.562 269.338 650.259C273.459 648.436 277.923 647.52 282.429 647.571C283.141 647.571 283.825 647.854 284.329 648.358C284.833 648.862 285.117 649.546 285.117 650.259C285.117 650.972 284.833 651.655 284.329 652.16C283.825 652.664 283.141 652.947 282.429 652.947C278.719 652.949 275.052 653.747 271.677 655.285C271.287 655.413 270.873 655.45 270.467 655.393Z" fill="#A08DFF"/>
<path d="M287.751 712.19C280.943 712.081 274.309 710.023 268.635 706.259C262.961 702.496 258.485 697.185 255.737 690.955C250.173 678.832 251.812 666.172 260.118 657.033C260.6 656.51 261.27 656.2 261.98 656.169C262.69 656.139 263.384 656.392 263.908 656.871C264.431 657.353 264.741 658.023 264.772 658.733C264.802 659.444 264.549 660.137 264.07 660.662C260.73 664.439 258.613 669.141 257.999 674.146C257.385 679.151 258.302 684.224 260.629 688.697C263.005 694.127 266.923 698.739 271.898 701.96C276.873 705.181 282.685 706.869 288.611 706.814C293.094 706.782 297.472 705.452 301.217 702.987C304.961 700.521 307.911 697.023 309.712 692.918C311.736 688.074 312.346 682.755 311.471 677.579C310.596 672.403 308.271 667.581 304.766 663.672C304.537 663.404 304.362 663.093 304.253 662.757C304.144 662.422 304.101 662.068 304.129 661.716C304.156 661.364 304.253 661.021 304.413 660.706C304.573 660.391 304.793 660.111 305.062 659.882C305.33 659.653 305.641 659.478 305.976 659.369C306.312 659.26 306.666 659.217 307.018 659.245C307.37 659.272 307.713 659.369 308.028 659.529C308.342 659.689 308.622 659.909 308.852 660.178C313.024 664.858 315.782 670.626 316.805 676.812C317.829 682.998 317.074 689.347 314.631 695.122C312.425 700.159 308.812 704.452 304.224 707.485C299.637 710.518 294.271 712.161 288.772 712.217L287.751 712.19Z" fill="#A08DFF"/>
<path d="M299.067 657.758C298.56 657.761 298.064 657.611 297.643 657.328C293.104 654.407 287.826 652.841 282.429 652.813C281.716 652.813 281.032 652.529 280.528 652.025C280.024 651.521 279.741 650.837 279.741 650.125C279.741 649.412 280.024 648.728 280.528 648.224C281.032 647.72 281.716 647.437 282.429 647.437C288.849 647.46 295.128 649.326 300.519 652.813C301.006 653.127 301.378 653.59 301.58 654.134C301.782 654.677 301.803 655.271 301.64 655.827C301.476 656.384 301.138 656.872 300.674 657.22C300.211 657.568 299.647 657.757 299.067 657.758Z" fill="#A08DFF"/>
<path d="M286.326 700.067C283.185 700.046 280.087 699.337 277.25 697.991C274.412 696.644 271.904 694.692 269.902 692.272C267.319 689.315 265.641 685.677 265.069 681.793C264.497 677.908 265.055 673.941 266.677 670.365C268.124 667.119 270.493 664.37 273.489 662.459C276.485 660.547 279.977 659.558 283.53 659.613C284.243 659.613 284.927 659.896 285.431 660.4C285.935 660.904 286.218 661.588 286.218 662.301C286.218 663.014 285.935 663.698 285.431 664.202C284.927 664.706 284.243 664.989 283.53 664.989C281.017 664.943 278.545 665.633 276.419 666.976C274.294 668.318 272.607 670.253 271.569 672.542C270.387 675.182 269.989 678.106 270.423 680.966C270.856 683.825 272.103 686.5 274.015 688.67C275.918 691.002 278.444 692.745 281.299 693.697C284.154 694.649 287.221 694.77 290.143 694.046C292.52 693.511 294.693 692.305 296.404 690.57C298.114 688.836 299.291 686.646 299.793 684.262C299.947 683.567 300.37 682.962 300.97 682.58C301.57 682.197 302.296 682.067 302.991 682.219C303.338 682.292 303.666 682.434 303.958 682.634C304.249 682.835 304.499 683.091 304.691 683.388C304.883 683.686 305.015 684.018 305.079 684.366C305.142 684.714 305.136 685.072 305.061 685.418C304.349 688.782 302.691 691.872 300.281 694.325C297.871 696.777 294.811 698.49 291.46 699.261C289.787 699.733 288.063 700.004 286.326 700.067Z" fill="#A08DFF"/>
<path d="M301.971 678.779C301.378 678.806 300.792 678.636 300.306 678.296C299.82 677.955 299.46 677.463 299.283 676.897C298.21 673.529 296.113 670.58 293.285 668.46C290.457 666.34 287.038 665.155 283.504 665.07C282.791 665.07 282.107 664.787 281.603 664.283C281.099 663.778 280.816 663.095 280.816 662.382C280.816 661.669 281.099 660.985 281.603 660.481C282.107 659.977 282.791 659.694 283.504 659.694C288.177 659.798 292.702 661.355 296.45 664.149C300.198 666.943 302.982 670.835 304.417 675.284C304.525 675.621 304.566 675.977 304.537 676.329C304.508 676.682 304.409 677.026 304.247 677.341C304.085 677.656 303.862 677.935 303.591 678.163C303.32 678.392 303.007 678.564 302.669 678.671C302.442 678.738 302.207 678.774 301.971 678.779Z" fill="#A08DFF"/>
<path d="M287.052 688.886C286.339 688.886 285.655 688.602 285.151 688.098C284.647 687.594 284.364 686.91 284.364 686.198C284.364 685.485 284.647 684.801 285.151 684.297C285.655 683.793 286.339 683.51 287.052 683.51C287.419 683.51 287.782 683.436 288.119 683.291C288.456 683.146 288.76 682.933 289.012 682.666C289.264 682.399 289.458 682.083 289.584 681.738C289.709 681.393 289.762 681.027 289.74 680.66C289.754 680.137 289.664 679.616 289.476 679.127C289.287 678.639 289.003 678.193 288.64 677.816C288.277 677.438 287.843 677.136 287.363 676.928C286.883 676.719 286.366 676.608 285.842 676.601C285.448 676.612 285.06 676.7 284.7 676.862C284.34 677.023 284.016 677.255 283.746 677.542C283.47 677.867 283.262 678.244 283.133 678.65C283.004 679.056 282.956 679.483 282.993 679.908C283.014 680.261 282.966 680.614 282.85 680.949C282.735 681.283 282.554 681.591 282.32 681.856C282.085 682.12 281.801 682.336 281.483 682.491C281.165 682.645 280.819 682.736 280.466 682.757C280.113 682.778 279.76 682.73 279.425 682.614C279.091 682.498 278.783 682.318 278.518 682.084C278.254 681.849 278.038 681.565 277.883 681.247C277.729 680.929 277.638 680.583 277.617 680.23C277.521 679.102 277.657 677.967 278.017 676.893C278.376 675.82 278.951 674.831 279.706 673.987C280.461 673.144 281.381 672.464 282.408 671.989C283.436 671.514 284.549 671.254 285.681 671.225C286.912 671.229 288.129 671.476 289.263 671.954C290.397 672.431 291.426 673.129 292.288 674.006C293.151 674.884 293.83 675.924 294.288 677.066C294.746 678.208 294.972 679.43 294.955 680.66C294.976 681.733 294.783 682.799 294.388 683.796C293.992 684.793 293.402 685.701 292.651 686.467C291.9 687.233 291.003 687.841 290.014 688.257C289.025 688.672 287.963 688.886 286.891 688.886H287.052Z" fill="#A08DFF"/>
<path d="M356.214 679.934C359.493 717.378 331.78 747.726 294.39 747.726H291.487C327.13 745.898 353.015 716.276 349.843 680.015C348.012 662.266 339.962 645.736 327.118 633.35C314.274 620.963 297.464 613.518 279.66 612.331C280.6 612.331 281.568 612.331 282.536 612.331C320.033 612.17 353.042 642.517 356.214 679.934Z" fill="#A08DFF"/>
<g opacity="0.4">
<path d="M356.214 679.934C359.493 717.378 331.78 747.726 294.39 747.726H291.487C327.13 745.898 353.015 716.276 349.843 680.015C348.012 662.266 339.962 645.736 327.118 633.35C314.274 620.963 297.464 613.518 279.66 612.331C280.6 612.331 281.568 612.331 282.536 612.331C320.033 612.17 353.042 642.517 356.214 679.934Z" fill="white"/>
</g>
<path d="M447.11 481.794C447.176 482.596 447.284 483.395 447.433 484.186C448.447 489.365 451.105 494.079 455.013 497.626C459.44 501.772 465.264 504.103 471.329 504.158H698.438C701.089 504.211 703.724 503.737 706.19 502.763C708.656 501.788 710.904 500.333 712.803 498.482C714.701 496.631 716.213 494.421 717.249 491.981C718.286 489.54 718.826 486.918 718.84 484.267C718.88 483.47 718.88 482.671 718.84 481.874C718.207 475.856 715.401 470.275 710.947 466.178C706.493 462.08 700.698 459.748 694.648 459.618H467.485C464.638 459.56 461.81 460.109 459.191 461.228C456.572 462.347 454.22 464.01 452.293 466.108C450.366 468.205 448.908 470.688 448.014 473.393C447.12 476.097 446.812 478.961 447.11 481.794Z" fill="#A08DFF"/>
<path opacity="0.8" d="M447.11 481.794C447.176 482.596 447.284 483.395 447.433 484.186C448.447 489.365 451.105 494.079 455.013 497.626C459.44 501.772 465.264 504.103 471.329 504.158H698.438C701.089 504.211 703.724 503.737 706.19 502.763C708.656 501.788 710.904 500.333 712.803 498.482C714.701 496.631 716.213 494.421 717.249 491.981C718.286 489.54 718.826 486.918 718.84 484.267C718.88 483.47 718.88 482.671 718.84 481.874C718.207 475.856 715.401 470.275 710.947 466.178C706.493 462.08 700.698 459.748 694.648 459.618H467.485C464.638 459.56 461.81 460.109 459.191 461.228C456.572 462.347 454.22 464.01 452.293 466.108C450.366 468.205 448.908 470.688 448.014 473.393C447.12 476.097 446.812 478.961 447.11 481.794Z" fill="white"/>
<path d="M718.84 484.105C718.841 484.825 718.787 485.544 718.679 486.256C717.878 480.374 714.998 474.972 710.561 471.028C706.124 467.084 700.423 464.858 694.487 464.752L453.024 465.289C454.938 463.427 457.201 461.961 459.682 460.974C462.164 459.987 464.815 459.499 467.485 459.537H694.594C700.645 459.667 706.44 462 710.893 466.097C715.347 470.194 718.153 475.775 718.786 481.794C718.842 482.563 718.86 483.334 718.84 484.105Z" fill="#A08DFF"/>
<path opacity="0.5" d="M718.84 484.105C718.841 484.825 718.787 485.544 718.679 486.256C717.878 480.374 714.998 474.972 710.561 471.028C706.124 467.084 700.423 464.858 694.487 464.752L453.024 465.289C454.938 463.427 457.201 461.961 459.682 460.974C462.164 459.987 464.815 459.499 467.485 459.537H694.594C700.645 459.667 706.44 462 710.893 466.097C715.347 470.194 718.153 475.775 718.786 481.794C718.842 482.563 718.86 483.334 718.84 484.105Z" fill="white"/>
<path d="M679.837 470.289L680.805 481.041L690.912 477.278L693.304 482.654L682.982 486.094L690.401 495.207L685.751 498.62L678.52 489.159L673.144 498.62L668.064 495.207L673.789 486.094L663.037 482.654L664.489 477.278L675.375 480.907L674.407 470.155L679.837 470.289Z" fill="#A08DFF"/>
<path d="M617.61 470.289L618.578 481.041L628.685 477.278L631.104 482.654L620.701 486.175L628.12 495.287L623.497 498.701L616.266 489.239L610.89 498.701L605.783 495.287L611.535 486.175L600.783 482.734L602.235 477.358L613.121 480.987L612.18 470.235L617.61 470.289Z" fill="#A08DFF"/>
<path d="M555.517 470.289L556.458 481.041L566.565 477.278L568.984 482.654L558.635 486.094L566.054 495.207L561.565 498.701L554.334 489.239L548.958 498.701L543.878 495.287L549.604 486.175L538.852 482.734L540.33 477.358L551.082 480.987L550.141 470.235L555.517 470.289Z" fill="#A08DFF"/>
<path d="M493.398 470.289L494.338 481.041L504.472 477.278L506.865 482.654L496.516 486.094L503.962 495.207L499.311 498.62L492.081 489.159L486.705 498.62L481.624 495.207L487.35 486.094L476.598 482.654L478.049 477.278L488.801 480.907L487.86 470.155L493.398 470.289Z" fill="#A08DFF"/>
<path d="M643.953 449H633.362V451.688H643.953V449Z" fill="#A08DFF"/>
<path d="M689.46 449H654.919V451.688H689.46V449Z" fill="#A08DFF"/>
<path opacity="0.8" d="M1108.2 342.021L1097.21 467.712C1096.79 471.724 1094.92 475.443 1091.95 478.174C1088.98 480.905 1085.12 482.461 1081.08 482.55H993.803C991.914 482.56 990.044 482.172 988.316 481.411C986.587 480.65 985.038 479.533 983.769 478.133C982.501 476.733 981.542 475.081 980.956 473.285C980.369 471.49 980.167 469.591 980.363 467.712L991.357 341.994C991.765 337.976 993.631 334.247 996.603 331.512C999.575 328.778 1003.45 327.228 1007.49 327.156H1094.76C1096.66 327.146 1098.53 327.535 1100.26 328.297C1101.99 329.06 1103.54 330.179 1104.81 331.582C1106.08 332.986 1107.04 334.641 1107.62 336.439C1108.21 338.238 1108.41 340.14 1108.2 342.021Z" fill="#A08DFF"/>
<path opacity="0.8" d="M1108.2 342.021L1097.21 467.712C1096.79 471.724 1094.92 475.443 1091.95 478.174C1088.98 480.905 1085.12 482.461 1081.08 482.55H993.803C991.914 482.56 990.044 482.172 988.316 481.411C986.587 480.65 985.038 479.533 983.769 478.133C982.501 476.733 981.542 475.081 980.956 473.285C980.369 471.49 980.167 469.591 980.363 467.712L991.357 341.994C991.765 337.976 993.631 334.247 996.603 331.512C999.575 328.778 1003.45 327.228 1007.49 327.156H1094.76C1096.66 327.146 1098.53 327.535 1100.26 328.297C1101.99 329.06 1103.54 330.179 1104.81 331.582C1106.08 332.986 1107.04 334.641 1107.62 336.439C1108.21 338.238 1108.41 340.14 1108.2 342.021Z" fill="white"/>
<path d="M999.314 362.289H999.072C998.363 362.227 997.707 361.887 997.249 361.343C996.79 360.799 996.566 360.095 996.626 359.386L997.647 347.881C997.708 347.211 998.018 346.588 998.515 346.135C999.013 345.682 999.662 345.432 1000.34 345.435H1012.49C1013.2 345.435 1013.88 345.718 1014.39 346.222C1014.89 346.726 1015.17 347.41 1015.17 348.123C1015.17 348.836 1014.89 349.519 1014.39 350.024C1013.88 350.528 1013.2 350.811 1012.49 350.811H1002.81L1002 359.843C1001.94 360.513 1001.63 361.136 1001.13 361.589C1000.64 362.042 999.987 362.291 999.314 362.289Z" fill="#A08DFF"/>
<path d="M1097.05 362.289H1096.81C1096.1 362.227 1095.44 361.887 1094.98 361.343C1094.53 360.799 1094.3 360.095 1094.36 359.386L1095.11 350.811H1085.92C1085.21 350.811 1084.52 350.528 1084.02 350.024C1083.52 349.519 1083.23 348.836 1083.23 348.123C1083.23 347.41 1083.52 346.726 1084.02 346.222C1084.52 345.718 1085.21 345.435 1085.92 345.435H1098.02C1098.39 345.433 1098.76 345.51 1099.1 345.66C1099.45 345.81 1099.76 346.03 1100.01 346.306C1100.26 346.581 1100.45 346.907 1100.57 347.262C1100.69 347.616 1100.74 347.992 1100.71 348.365L1099.68 359.843C1099.62 360.504 1099.32 361.119 1098.84 361.571C1098.35 362.022 1097.71 362.278 1097.05 362.289Z" fill="#A08DFF"/>
<path d="M1003.94 449.03H991.788C991.419 449.029 991.054 448.952 990.717 448.804C990.379 448.656 990.076 448.441 989.825 448.17C989.574 447.897 989.382 447.574 989.262 447.222C989.141 446.871 989.095 446.498 989.126 446.127L990.121 434.623C990.181 433.91 990.523 433.25 991.07 432.789C991.617 432.328 992.325 432.103 993.037 432.163C993.75 432.224 994.41 432.565 994.871 433.112C995.332 433.659 995.557 434.367 995.497 435.08L994.744 443.654H1003.94C1004.65 443.654 1005.33 443.938 1005.84 444.442C1006.34 444.946 1006.63 445.63 1006.63 446.342C1006.63 447.055 1006.34 447.739 1005.84 448.243C1005.33 448.747 1004.65 449.03 1003.94 449.03Z" fill="#A08DFF"/>
<path d="M1089.44 449.03H1077.32C1076.61 449.03 1075.92 448.747 1075.42 448.243C1074.91 447.739 1074.63 447.055 1074.63 446.342C1074.63 445.63 1074.91 444.946 1075.42 444.442C1075.92 443.938 1076.61 443.654 1077.32 443.654H1087L1087.78 434.623C1087.84 433.914 1088.18 433.258 1088.72 432.8C1089.27 432.341 1089.97 432.117 1090.68 432.177C1091.39 432.238 1092.04 432.578 1092.5 433.123C1092.96 433.667 1093.18 434.371 1093.13 435.08L1092.13 446.584C1092.07 447.255 1091.76 447.878 1091.26 448.331C1090.76 448.783 1090.12 449.033 1089.44 449.03Z" fill="#A08DFF"/>
<path d="M1080.19 405.691C1086.26 382.159 1075.84 359.128 1056.92 354.249C1038.01 349.371 1017.75 364.493 1011.68 388.025C1005.62 411.557 1016.03 434.588 1034.95 439.467C1053.87 444.345 1074.12 429.223 1080.19 405.691Z" fill="white"/>
<path d="M1056.49 463.761H1021.68L1024.72 428.951H1059.52L1056.49 463.761Z" fill="white"/>
<path d="M1097.21 467.712C1096.79 471.724 1094.92 475.443 1091.95 478.174C1088.98 480.905 1085.12 482.461 1081.08 482.55H993.803C991.914 482.56 990.044 482.172 988.316 481.411C986.587 480.65 985.038 479.533 983.769 478.133C982.501 476.733 981.542 475.081 980.956 473.285C980.369 471.49 980.167 469.591 980.363 467.712C980.363 467.712 1020.47 455.025 1025.41 455.025H1056.41L1097.21 467.712Z" fill="white"/>
<path d="M1113.27 378.754L1109.21 428.126L1111.88 428.347L1115.95 378.975L1113.27 378.754Z" fill="#A08DFF"/>
<path d="M1116.1 356.161L1115.3 365.859L1117.98 366.079L1118.78 356.382L1116.1 356.161Z" fill="#A08DFF"/>
<path d="M1022.43 656.06H1011.84V658.748H1022.43V656.06Z" fill="#A08DFF"/>
<path d="M1067.94 656.06H1033.4V658.748H1067.94V656.06Z" fill="#A08DFF"/>
<path d="M1131.16 610.176L1124.47 686.784C1124.12 690.17 1122.54 693.311 1120.04 695.614C1117.53 697.917 1114.27 699.222 1110.87 699.283C1109.26 699.311 1107.68 698.999 1106.2 698.366C1104.73 697.733 1103.41 696.794 1102.33 695.612C1101.25 694.43 1100.44 693.031 1099.94 691.509C1099.44 689.987 1099.27 688.376 1099.44 686.784L1106.08 610.176C1106.7 604.462 1106.1 598.682 1104.31 593.22C1102.52 587.757 1099.6 582.737 1095.72 578.492C1091.85 574.247 1087.12 570.874 1081.84 568.597C1076.56 566.321 1070.86 565.192 1065.12 565.286H1037.81C1025.59 565.517 1013.88 570.21 1004.89 578.48C995.899 586.749 990.244 598.023 988.992 610.176L986.304 641.464H961.306L963.994 610.176C967.354 571.63 1001.46 540.288 1039.98 540.288H1067.4C1076.35 540.14 1085.22 541.897 1093.44 545.442C1101.65 548.987 1109.02 554.238 1115.05 560.847C1121.08 567.457 1125.63 575.274 1128.41 583.778C1131.19 592.283 1132.13 601.281 1131.16 610.176Z" fill="#A08DFF"/>
<g opacity="0.5">
<path d="M1131.16 610.176L1124.47 686.784C1124.12 690.17 1122.54 693.311 1120.04 695.614C1117.53 697.917 1114.27 699.222 1110.87 699.283C1109.26 699.311 1107.68 698.999 1106.2 698.366C1104.73 697.733 1103.41 696.794 1102.33 695.612C1101.25 694.43 1100.44 693.031 1099.94 691.509C1099.44 689.987 1099.27 688.376 1099.44 686.784L1106.08 610.176C1106.7 604.462 1106.1 598.682 1104.31 593.22C1102.52 587.757 1099.6 582.737 1095.72 578.492C1091.85 574.247 1087.12 570.874 1081.84 568.597C1076.56 566.321 1070.86 565.192 1065.12 565.286H1037.81C1025.59 565.517 1013.88 570.21 1004.89 578.48C995.899 586.749 990.244 598.023 988.992 610.176L986.304 641.464H961.306L963.994 610.176C967.354 571.63 1001.46 540.288 1039.98 540.288H1067.4C1076.35 540.14 1085.22 541.897 1093.44 545.442C1101.65 548.987 1109.02 554.238 1115.05 560.847C1121.08 567.457 1125.63 575.274 1128.41 583.778C1131.19 592.283 1132.13 601.281 1131.16 610.176Z" fill="#D3CBF9"/>
</g>
<path d="M1132.96 683.988L1119.92 833.28C1119.45 837.909 1117.3 842.203 1113.87 845.349C1110.44 848.495 1105.98 850.274 1101.32 850.349H952.032C949.846 850.388 947.676 849.962 945.667 849.098C943.658 848.233 941.856 846.951 940.381 845.336C938.906 843.722 937.792 841.811 937.113 839.732C936.433 837.654 936.205 835.454 936.442 833.28L949.505 683.988C949.806 681.012 950.805 678.148 952.421 675.631C954.037 673.113 956.225 671.012 958.806 669.5C961.608 667.784 964.821 666.856 968.106 666.812H1117.37C1120.42 666.795 1123.41 667.643 1126 669.258C1128.41 670.824 1130.34 673.031 1131.57 675.633C1132.8 678.235 1133.28 681.129 1132.96 683.988Z" fill="#A08DFF"/>
<path d="M977.729 749.199L1016.52 808.9L1144.44 680.978C1144.64 680.741 1144.74 680.44 1144.74 680.132C1144.73 679.823 1144.62 679.526 1144.41 679.295C1144.21 679.064 1143.93 678.914 1143.62 678.873C1143.32 678.832 1143 678.901 1142.75 679.069L1020.85 774.628L997.809 737.506L977.729 749.199Z" fill="white"/>
<path fill-rule="evenodd" clip-rule="evenodd" d="M734.725 921.042C736.514 926.852 737.477 933.025 737.477 939.423C737.477 973.865 709.556 1001.79 675.113 1001.79C640.67 1001.79 612.749 973.865 612.749 939.423C612.749 904.98 640.67 877.058 675.113 877.058C691.139 877.058 705.754 883.103 716.8 893.038C720.955 890.468 725.083 888.083 729.162 885.873C715.374 871.958 696.25 863.338 675.113 863.338C633.093 863.338 599.028 897.402 599.028 939.423C599.028 981.443 633.093 1015.51 675.113 1015.51C717.133 1015.51 751.197 981.443 751.197 939.423C751.197 929.327 749.231 919.691 745.661 910.876C741.976 914.126 738.324 917.53 734.725 921.042Z" fill="#C9C1EF"/>
<path d="M676.336 988.775L636.042 931.403C648.292 927.578 668.546 944.152 676.336 949.73C707.281 890.446 781.635 866.063 814.944 861.282C751.764 875.943 696.214 952.386 676.336 988.775Z" fill="#77F48B"/>
<path fill-rule="evenodd" clip-rule="evenodd" d="M790.267 939.423C790.267 1003.02 738.711 1054.58 675.112 1054.58C611.514 1054.58 559.958 1003.02 559.958 939.423C559.958 875.824 611.514 824.268 675.112 824.268C709.939 824.268 741.154 839.727 762.27 864.158C756.052 867.04 749.663 870.319 743.183 874.033C726.008 856.158 701.859 845.033 675.112 845.033C622.982 845.033 580.723 887.293 580.723 939.423C580.723 991.552 622.982 1033.81 675.112 1033.81C727.242 1033.81 769.502 991.552 769.502 939.423C769.502 925.406 766.446 912.102 760.965 900.142C766.351 895.206 771.827 890.551 777.323 886.327C785.593 902.214 790.267 920.273 790.267 939.423Z" fill="#A08DFF"/>
<path fill-rule="evenodd" clip-rule="evenodd" d="M572.296 848.944C605.197 816.042 632.958 800.62 675.113 800.62C717.268 800.62 745.028 816.042 777.93 848.944L817 783.141L675.113 705L533.226 783.141L533.225 783.141L533.226 783.141V885.252L525 893.477L536.632 905.11L548.265 893.477L539.395 884.607V793.531L572.296 848.944Z" fill="#A08DFF"/>
</svg>
