<svg width="207" height="226" viewBox="0 0 207 226" fill="none" xmlns="http://www.w3.org/2000/svg">
<ellipse cx="80.5" cy="219.5" rx="70.5" ry="6.5" fill="black" fill-opacity="0.24"/>
<path d="M55.0739 177.327L37.9964 189.549L31.3038 180.197" stroke="#A08DFF" stroke-width="4" stroke-linecap="round"/>
<path d="M80.5708 188.899L82.6161 209.799L94.0614 208.679" stroke="#A08DFF" stroke-width="4" stroke-linecap="round"/>
<path fill-rule="evenodd" clip-rule="evenodd" d="M119.71 137.819C119.334 140.752 118.52 143.679 117.235 146.512C110.312 161.764 92.3363 168.517 77.084 161.595C61.8317 154.673 55.0788 136.697 62.0011 121.444C68.9233 106.192 86.8993 99.4393 102.152 106.362C109.249 109.582 114.505 115.197 117.4 121.816C119.757 121.513 122.064 121.287 124.315 121.128C121.006 112.194 114.269 104.534 104.909 100.286C86.3013 91.8407 64.3705 100.079 55.9254 118.687C47.4803 137.295 55.7187 159.225 74.3265 167.671C92.9343 176.116 114.865 167.877 123.31 149.27C125.339 144.799 126.405 140.137 126.596 135.516C124.311 136.214 122.009 136.988 119.71 137.819Z" fill="#C9C1EF"/>
<path d="M80.2405 156.078L73.928 122.575C80.1209 123.343 85.759 134.753 88.0876 138.788C113.706 118.755 151.532 122.901 167.243 127.478C136.319 121.273 96.3563 143.96 80.2405 156.078Z" fill="#77F48B"/>
<path fill-rule="evenodd" clip-rule="evenodd" d="M140.612 157.122C127.83 185.285 94.6373 197.754 66.4741 184.972C38.311 172.19 25.842 138.998 38.6238 110.835C51.4056 82.6715 84.5981 70.2025 112.761 82.9843C128.183 89.9836 138.899 103.103 143.34 118.166C140.007 118.192 136.519 118.36 132.903 118.703C128.89 107.335 120.432 97.5555 108.588 92.18C85.5033 81.7031 58.2963 91.9236 47.8194 115.008C37.3425 138.093 47.563 165.3 70.6476 175.776C93.7321 186.253 120.939 176.033 131.416 152.948C134.233 146.741 135.554 140.236 135.53 133.838C138.907 132.735 142.268 131.774 145.55 131.008C146.02 139.705 144.46 148.642 140.612 157.122Z" fill="#A08DFF"/>
<path fill-rule="evenodd" clip-rule="evenodd" d="M62.2717 73.2477C83.4538 65.2905 98.8466 64.0402 117.514 72.5124C136.181 80.9846 145.375 93.3934 153.332 114.575L183.859 93.2884L136.731 30.1693L58.1951 36.2561L62.2717 73.2477Z" fill="#A08DFF"/>
<path d="M142.013 146.776L179.081 132.851" stroke="#A08DFF" stroke-width="4" stroke-linecap="round"/>
<path d="M50.0415 105.035L36.1163 67.9662" stroke="#A08DFF" stroke-width="4" stroke-linecap="round"/>
<path d="M58.0662 38.4648C52.5662 41.4648 41.5662 38.7734 33.5662 33.1734C31.2328 31.5068 25.2662 29.1734 20.0662 33.1734" stroke="#A08DFF" stroke-width="3" stroke-linecap="square"/>
<path d="M51.3818 56.9344C51.3588 56.8608 51.3361 56.7882 51.313 56.7146C50.4916 56.4769 49.6698 56.238 48.8472 56.0006C48.8435 55.9656 48.8399 55.9305 48.8362 55.8955C49.3567 55.8497 49.8761 55.8042 50.4746 55.7521C49.7585 55.2811 49.7175 55.2276 49.551 54.4241C49.4886 54.1239 49.449 53.8189 49.4141 53.5137C49.2333 51.928 49.2358 51.932 47.669 52.2617C47.4107 52.316 47.0919 52.5219 46.9357 52.1002C46.7926 51.7166 47.0593 51.5378 47.3283 51.3704C47.7981 51.0774 48.2708 50.7895 48.7957 50.4672C48.4223 49.9481 48.0792 49.4678 47.7331 48.9897C46.8455 47.7651 46.844 47.7643 45.6472 48.695C45.2621 48.9953 44.8837 49.3056 44.4096 49.6856C44.2626 49.0414 44.1483 48.5365 44.0084 47.9226C43.0084 48.5758 42.3179 48.3067 41.8187 47.4011C41.5518 46.9162 41.1554 46.8821 40.7783 47.2234C40.0259 47.904 39.3093 48.6254 38.5805 49.3312C38.4641 49.4437 38.357 49.5665 38.2459 49.6845C38.196 49.6374 38.1446 49.5895 38.0947 49.5423C38.6866 48.8021 39.2788 48.0629 39.9079 47.2749C39.1052 46.8141 38.3151 46.3819 37.5488 45.9097C37.208 45.7002 36.9913 45.7402 36.7968 46.0762C36.4602 46.6593 36.1352 47.2485 35.7653 47.8107C35.6612 47.97 35.4215 48.0414 35.244 48.1524C35.2092 48.0993 35.1744 48.0463 35.14 47.9943C35.2458 47.7355 35.3531 47.4775 35.4835 47.158C34.7063 46.8292 33.9669 46.5163 33.2274 46.2034C33.191 46.2148 33.1534 46.2266 33.117 46.238C32.8303 47.0698 32.5439 47.9027 32.2587 48.7316C32.2463 48.312 32.1943 47.8745 32.2278 47.4429C32.2744 46.8708 32.0322 46.7982 31.5456 46.9215C31.1208 47.029 30.6792 47.0671 30.2438 47.1369C30.0229 47.206 29.802 47.2751 29.581 47.3443C29.6297 47.8913 29.678 48.4373 29.7321 49.0443C29.513 48.9137 29.3745 48.8316 29.2313 48.746C29.0027 49.0155 28.7973 49.2583 28.5915 49.5037C28.0415 49.1412 27.5438 48.8179 27.052 48.4866C26.7982 48.3151 26.6094 48.3512 26.4143 48.5957C25.9463 49.1813 25.4645 49.758 24.9752 50.3262C24.8408 50.4817 24.6743 50.6979 24.5016 50.7193C22.9133 50.9146 21.6534 52.0665 20.0522 52.232C19.8395 52.2539 19.5976 52.5311 19.4692 52.7487C19.1624 53.2682 18.912 53.8208 18.6465 54.3636C18.2714 55.1301 17.534 54.6417 16.9951 54.8417C16.8723 54.8873 16.729 54.8827 16.5949 54.8921C16.1376 54.9229 15.9649 55.1579 16.0052 55.6123C16.0476 56.089 16.0566 56.5712 16.0437 57.0495C16.033 57.4571 16.2162 57.5349 16.5796 57.4791C17.0655 57.4043 17.5572 57.3712 18.2103 57.3032C17.6651 57.7935 17.2588 58.1656 16.8454 58.5303C16.563 58.7791 16.5107 59.0151 16.8106 59.2953C17.0477 59.518 17.2492 59.7783 17.4765 60.0125C17.7231 60.266 17.6973 60.4393 17.3945 60.6499C16.6854 61.1433 15.9997 61.6728 15.3044 62.1871C15.3388 62.297 15.3732 62.407 15.4076 62.5169C15.7162 63.0381 16.0381 63.5516 16.3268 64.0827C16.5036 64.4075 16.6745 64.663 17.1983 64.2674C16.8383 64.7758 16.5864 65.1297 16.336 65.4844C16.3704 65.5943 16.4048 65.7042 16.4392 65.8142C16.9207 66.3067 17.4272 66.7781 17.8722 67.3013C18.0524 67.5128 18.1654 67.8274 18.2 68.1086C18.2685 68.6688 18.2615 69.2393 18.2912 69.9082C18.8897 69.4989 19.3934 69.1555 19.8969 68.8109C19.9932 68.8785 20.0885 68.9465 20.1848 69.0141C20.0486 69.1484 19.8889 69.2659 19.7801 69.4182C19.4879 69.8294 19.5248 70.1569 19.9833 70.4672C20.5699 70.8653 21.0909 71.3599 21.6745 71.7638C21.9625 71.9633 22.0925 72.1772 22.1908 72.5109C22.2947 72.8621 22.5142 73.3352 22.8008 73.4411C23.2984 73.6244 23.8873 73.5645 24.4751 73.6099C24.4855 73.1432 24.4954 72.7444 24.5049 72.3444C24.5834 72.3512 24.6616 72.3569 24.7401 72.3637C24.6907 72.8413 24.6116 73.3174 24.606 73.7958C24.6033 74.0042 24.6947 74.3351 24.8408 74.4029C25.4108 74.6662 26.0189 74.8464 26.6929 75.0856C26.7484 74.8522 26.79 74.6751 26.8444 74.4457C27.2686 74.821 27.5929 75.1093 27.9801 75.4515C28.1847 74.9193 28.3592 74.4653 28.5334 74.0102C28.6043 74.6903 28.5676 75.3522 28.5822 76.0113C28.5855 76.1732 28.743 76.4594 28.8536 76.4718C29.7843 76.5704 30.7211 76.6188 31.7399 76.6886C31.6526 74.8166 31.6932 73.0313 32.1473 71.2614C32.28 71.4105 32.3599 71.5689 32.3727 71.7339C32.3894 71.9422 32.3368 72.1542 32.3385 72.3648C32.3483 73.6095 32.3573 74.8555 32.384 76.0997C32.395 76.6272 32.6074 76.9107 33.2149 76.7593C33.6602 76.6477 34.1268 76.6079 34.5872 76.5676C35.1015 76.5214 35.2508 76.3395 35.1352 75.788C34.8378 74.3643 34.6241 72.9216 34.3847 71.4857C34.366 71.3757 34.4076 71.2565 34.4326 71.0496C35.1939 72.6962 35.9086 74.244 36.6773 75.9065C37.366 74.7003 38.614 74.7587 39.5228 74.1631C39.2951 73.8422 39.0891 73.5482 38.8794 73.2579C38.6306 72.9122 38.7571 72.7507 39.1398 72.6636C39.5316 72.5748 39.8189 72.6248 39.9493 73.0571C40.1678 73.7827 40.3996 74.5042 40.6486 75.2999C41.1588 75.0896 41.6244 74.9186 42.0724 74.7109C43.4626 74.0647 43.3673 74.3842 42.6598 73.0839C42.6051 72.9828 42.5302 72.8867 42.5023 72.7784C42.4769 72.6778 42.4596 72.5372 42.5098 72.4611C42.8075 72.0132 43.7271 71.9331 44.1238 72.3133C44.616 72.7856 45.1 73.2665 45.6085 73.7638C46.2982 73.1076 46.9346 72.5019 47.6139 71.8549C47.2772 71.5271 46.9876 71.2448 46.6545 70.9206C47.5125 70.5581 48.2783 70.234 49.0433 69.9114C49.0545 69.8428 49.0654 69.773 49.0778 69.7039C48.1384 69.0542 47.1986 68.4034 46.2592 67.7537C46.2664 67.7418 46.2732 67.7288 46.2815 67.7166C46.9164 68.0054 47.5517 68.2954 48.1869 68.5853C48.2166 68.2189 48.2528 67.7804 48.3014 67.1836C48.6273 67.5353 48.853 67.741 49.0318 67.9831C49.2438 68.2692 49.4417 68.3243 49.7487 68.1076C50.2831 67.7304 50.8312 67.3695 51.3927 67.0321C51.7541 66.8153 51.7874 66.5804 51.6043 66.2238C51.0187 65.0809 50.0998 64.3029 48.9608 63.7518C48.7763 63.6623 48.5922 63.5739 48.3204 63.4417C48.5144 63.2012 48.6698 63.0078 48.8495 62.7839C48.5269 62.5626 48.306 62.4109 48.0851 62.2592C48.0988 62.2332 48.1128 62.2083 48.1265 62.1823C48.9474 62.5385 49.7694 62.8943 50.6502 63.2751C50.8431 62.7985 51.0279 62.3388 51.2131 61.8803C51.9215 60.1286 51.9207 60.13 50.0497 59.6656C49.793 59.6011 49.5419 59.5156 49.2876 59.4394C49.3047 59.3738 49.321 59.3096 49.338 59.2439C49.7729 59.3275 50.2081 59.4121 50.6713 59.5013C50.911 58.6275 51.1468 57.7802 51.3818 56.9344ZM34.6673 64.9271C34.7459 64.6744 34.7696 64.3858 34.9125 64.1758C35.7729 62.9099 36.8111 61.8092 38.0946 60.9539C39.6289 59.9309 41.3029 59.3818 43.1589 59.5034C43.3508 59.5158 43.692 59.7228 43.6887 59.8324C43.6662 60.59 43.5702 61.3453 43.4941 62.1486C39.9979 61.436 37.3584 63.1089 34.6673 64.9271ZM25.6253 57.3773C25.6413 57.4363 25.6584 57.4949 25.6748 57.5549C24.7034 57.5355 23.7328 57.4916 22.7625 57.5032C21.7645 57.5149 20.7675 57.5807 19.7692 57.6227C19.6436 57.6282 19.5163 57.6283 19.3029 57.6323C19.3906 57.0908 19.5052 56.6084 19.5384 56.1214C19.5774 55.5288 19.8916 55.3122 20.4413 55.2163C22.5009 54.8567 24.4197 55.276 26.2628 56.1703C26.3385 56.207 26.391 56.2895 26.4624 56.3589C26.168 56.7164 25.8965 57.0463 25.6253 57.3773ZM43.3 51.155C44.4372 50.2236 45.4665 49.3658 46.5226 48.5394C46.6092 48.4713 46.9349 48.5588 47.03 48.6727C47.387 49.0967 47.6871 49.5676 48.0233 50.0102C48.2108 50.2568 48.1489 50.4234 47.9074 50.5738C47.532 50.8083 47.1269 51.0099 46.7934 51.2928C45.2125 52.6357 43.6376 53.9864 42.0943 55.3718C41.7354 55.694 41.4811 55.9353 41.0605 55.5215C40.9608 55.4236 40.8206 55.3673 40.5767 55.2155C41.9449 54.154 43.2391 53.1505 44.5593 52.1257C44.1709 51.8261 43.8113 51.5488 43.3 51.155ZM31.8948 67.9774C31.8688 68.9062 31.8827 69.7296 31.8173 70.5477C31.6789 72.284 31.4832 74.0153 31.3496 75.7512C31.3196 76.1359 31.2653 76.323 30.8306 76.2672C30.373 76.2076 29.9095 76.1837 29.4474 76.1798C29.0424 76.1762 28.8847 75.9939 28.9371 75.6107C29.1247 74.2451 29.3135 72.8792 29.5121 71.5139C29.5299 71.3925 29.6177 71.2817 29.6792 71.1527C30.0884 71.2744 30.4653 71.3858 30.9076 71.5165C30.9741 70.2408 31.2226 69.0891 31.8948 67.9774ZM25.543 66.2275C25.4871 66.1497 25.4356 66.1091 25.4263 66.0601C25.3201 65.5346 25.2143 65.0103 25.1195 64.4824C24.9622 63.6037 25.0007 63.5289 25.8752 63.2891C27.677 62.7954 29.4963 62.7921 31.2975 63.2386C32.0191 63.4171 32.5852 63.9121 33.1548 64.5351C30.4808 64.2603 30.1007 63.7433 25.543 66.2275ZM38.2864 63.3423C40.0336 62.43 41.8288 61.9854 43.7762 62.6782C43.8127 62.4616 43.7983 62.2682 43.8804 62.1351C43.9795 61.975 44.1663 61.7464 44.3074 61.7518C45.5505 61.7984 46.7469 62.0637 47.8766 62.6008C48.2086 62.7587 48.2323 62.9468 48.0235 63.2293C47.7723 63.5698 47.5206 63.9128 47.3102 64.2791C47.0873 64.6674 46.8584 64.6762 46.4693 64.483C44.3234 63.4156 42.044 62.9715 39.6452 63.1694C39.1911 63.2065 38.7398 63.2837 38.2864 63.3423ZM20.8167 66.4404C20.3576 66.1786 19.9344 65.9189 19.4947 65.692C19.1489 65.513 19.0954 65.2956 19.2572 64.9482C19.729 63.933 20.4222 63.1055 21.3089 62.4239C21.6307 62.1772 21.9197 62.0542 22.218 62.4339C22.6909 61.6428 23.6333 61.0812 23.8894 61.4307C23.8488 61.5761 23.8062 61.7306 23.7572 61.9113C24.4868 61.8049 25.1653 61.706 25.8442 61.6083C23.1215 62.8486 22.5607 63.3704 20.8167 66.4404ZM34.4835 56.3001C34.4151 56.2793 34.3479 56.2581 34.2795 56.2372C34.2969 56.0448 34.2768 55.8411 34.3378 55.6639C34.6747 54.6668 35.0479 53.6812 35.3731 52.6817C35.5256 52.2117 36.1693 51.8425 35.7104 51.2283C35.6915 51.2029 35.7359 51.1202 35.764 51.0704C36.0514 50.5509 36.3262 50.022 36.6454 49.5228C36.7055 49.4279 36.9998 49.3685 37.0992 49.4303C37.6033 49.7431 38.087 50.0914 38.555 50.4554C38.6498 50.5295 38.7289 50.7823 38.6753 50.863C38.2887 51.457 37.8908 52.046 37.4509 52.6012C36.6179 53.6522 35.7539 54.6779 34.9065 55.7177C34.7546 55.9028 34.6235 56.1043 34.4835 56.3001ZM34.8157 56.4665C35.3915 55.6866 35.8829 54.9778 36.4178 54.3036C37.4145 53.047 37.4264 53.0541 38.5912 54.11C38.9211 54.4086 39.2401 54.719 39.5583 55.0189C38.6955 55.7148 37.9203 56.3422 37.1387 56.9645C37.067 57.0219 36.9642 57.0384 36.881 57.0825C36.5935 57.2376 36.2319 57.3338 36.0366 57.5663C35.5804 58.1121 35.2055 58.7241 34.7968 59.3093C34.8847 58.664 34.9939 58.0168 35.2194 57.4117C35.3775 56.9906 35.4369 56.6921 34.8157 56.4665ZM38.5927 53.5025C37.7385 52.9661 37.7308 52.9456 38.2155 52.2039C38.4039 51.9145 38.6028 51.6314 38.8064 51.3517C39.3369 50.621 39.3387 50.6229 38.6988 50.0388C38.675 50.0172 38.6745 49.9691 38.6157 49.7812C39.2312 49.159 39.8697 48.4476 40.5791 47.8154C41.1946 47.2669 41.2668 47.3119 41.8041 47.9631C41.9863 48.1848 42.1565 48.4188 42.3525 48.6266C42.6047 48.894 42.5665 49.0471 42.2859 49.3171C41.3614 50.2036 40.4685 51.125 39.605 52.0708C39.2211 52.4914 38.9401 53.0041 38.5927 53.5025ZM47.743 68.0038C46.8979 67.6323 46.0827 67.1742 45.2072 66.9148C44.2862 66.6418 43.5628 66.1128 42.8379 65.548C42.6437 65.3963 42.3158 65.3445 42.4679 64.9506C42.6096 64.5817 42.8498 64.5162 43.1953 64.5854C44.8167 64.9108 46.4405 65.2281 48.0614 65.556C48.1842 65.5803 48.2965 65.6562 48.3299 65.6699C48.126 66.4758 47.9371 67.2287 47.743 68.0038ZM34.4071 66.0957C34.4288 66.1263 34.4645 66.155 34.47 66.1882C34.6789 67.4683 34.8742 68.7515 35.097 70.0296C35.1567 70.3717 35.0008 70.4857 34.7187 70.5377C34.1513 70.6429 33.5784 70.7268 33.0157 70.8546C32.565 70.9569 32.3828 70.7738 32.3008 70.3566C32.1145 69.4122 32.1974 68.4873 32.4664 67.5717C32.7946 66.4578 33.1705 66.1785 34.4071 66.0957ZM19.237 63.1783C19.2287 63.1748 19.1864 63.1676 19.1638 63.142C17.5981 61.3392 17.6687 60.7741 19.2806 58.9955C20.3572 57.808 21.6036 57.6521 23.0746 57.9425C22.4236 58.2535 21.7967 58.5329 21.1896 58.8484C20.4334 59.2418 20.4556 59.2469 20.8227 60.013C20.9248 60.2272 21.0185 60.5732 20.9176 60.7351C20.4016 61.559 19.8209 62.3428 19.237 63.1783ZM21.7024 71.3219C21.1923 70.924 20.7864 70.5804 20.3512 70.2785C20.0181 70.0473 19.96 69.8229 20.171 69.4661C20.8305 68.3451 21.7583 67.4925 22.8392 66.7995C22.9582 66.7225 23.2767 66.8063 23.4053 66.9229C23.6774 67.1684 23.8851 67.4835 24.2433 67.9229C24.507 67.2926 24.7122 66.8012 24.952 66.2302C25.146 66.61 25.266 66.8463 25.4322 67.172C24.1728 68.4457 22.3467 69.2994 21.7024 71.3219ZM26.4348 56.9877C26.7415 56.677 27.085 56.3487 27.4049 55.9988C27.644 55.7358 27.8806 55.7052 28.1585 55.9151C28.8928 56.4673 29.6086 57.0458 30.3655 57.5656C31.6107 58.4213 31.5478 59.8636 32.0019 61.102C31.0675 60.4374 30.2398 59.6719 29.3467 58.992C28.4375 58.2991 27.465 57.6911 26.4348 56.9877ZM26.3393 74.5446C26.0622 74.4576 25.8503 74.3694 25.6287 74.3241C25.026 74.2001 24.9119 73.8702 25.0356 73.2849C25.3599 71.7475 25.9036 70.3067 26.7502 68.9812C26.8956 68.7523 27.015 68.3083 27.4174 68.6445C27.7394 68.9142 28.4863 68.9135 28.1282 69.6879C27.7109 70.5908 27.3154 71.5049 26.9648 72.4351C26.7171 73.093 26.5605 73.7864 26.3393 74.5446ZM32.1412 52.8759C32.093 52.8922 32.0447 52.9085 31.9964 52.9248C31.7701 52.6976 31.5441 52.4715 31.2227 52.1497C31.0896 52.639 30.979 53.0453 30.8218 53.6205C30.7277 53.2421 30.6551 53.0295 30.624 52.81C30.4413 51.5012 30.2444 50.1932 30.098 48.8803C29.9544 47.5919 29.9805 47.6018 31.2267 47.3519C31.6753 47.2622 31.8471 47.3617 31.8682 47.8438C31.9201 49.0294 32.031 50.2135 32.1046 51.3983C32.1346 51.8897 32.1302 52.3834 32.1412 52.8759ZM34.8416 67.2944C34.9099 67.2802 34.9768 67.2653 35.0451 67.2512C35.5429 67.9546 35.5323 68.7966 35.6559 69.6026C35.6798 69.7604 35.7354 70.035 35.8076 70.045C36.2699 70.1115 36.2412 70.4849 36.3132 70.781C36.471 71.4327 36.6189 72.0875 36.7458 72.7453C36.8122 73.0853 36.9557 73.1719 37.303 73.0958C38.2869 72.8797 38.4894 73.0155 38.8306 74.0321C38.1415 74.3455 37.4491 74.6598 36.656 75.0202C36.1788 73.964 35.6883 72.9313 35.2451 71.879C34.9052 71.0719 34.9311 71.0614 35.6265 70.6133C35.3651 69.5065 35.1026 68.4001 34.8416 67.2944ZM26.6842 51.9973C27.0671 51.2754 27.4206 50.5989 27.7904 49.9317C27.8337 49.853 28.0254 49.7604 28.0589 49.7862C28.7121 50.2962 29.6484 50.6995 29.928 51.3722C30.3992 52.5063 30.4525 53.8121 30.7044 55.1717C29.6584 53.6503 28.8806 51.9823 26.6842 51.9973ZM42.4162 56.4356C42.4775 56.4803 42.4568 56.4723 42.4515 56.4595C42.4474 56.4463 42.4539 56.4165 42.4642 56.4109C42.8402 56.2172 43.2054 56.0004 43.5947 55.8376C44.9743 55.2623 46.3866 54.8458 47.911 54.9891C48.2923 55.0255 48.4661 55.1545 48.4088 55.5646C48.3423 56.038 48.3417 56.5208 48.2777 56.9945C48.2591 57.1367 48.1344 57.37 48.0384 57.3807C47.2613 57.467 46.4778 57.5094 45.6214 57.571C45.6465 57.1589 45.6471 56.781 45.6967 56.4083C45.751 55.9967 45.6205 55.8276 45.1951 55.91C44.2897 56.0859 43.384 56.2534 42.4162 56.4356ZM40.7837 68.9829C40.8941 68.9484 41.0123 68.9307 41.1118 68.8766C41.6371 68.5941 42.0006 68.7325 42.266 69.2552C42.4645 69.6456 42.751 69.9952 42.92 70.3961C43.5247 71.8287 43.3365 71.6498 42.3132 72.081C42.207 72.1251 42.1084 72.1861 42.0032 72.2335C41.4044 72.4981 41.3172 72.4481 41.0568 71.8599C40.8254 71.3374 40.5852 70.814 40.2898 70.3272C39.6835 69.3235 39.6669 69.3323 40.7837 68.9829ZM24.425 68.5732C24.2603 69.0277 24.1331 69.3885 23.9975 69.7459C23.8247 70.2054 23.7793 70.6106 24.3683 70.7219C24.277 71.4648 24.1981 72.1664 24.0978 72.8651C24.082 72.9775 23.9987 73.1338 23.9065 73.1724C23.3865 73.3905 22.6906 73.0423 22.5668 72.4838C22.1737 70.7002 22.6277 69.8293 24.425 68.5732ZM33.3365 56.2777C33.8212 56.482 34.231 56.6132 34.5915 56.8274C34.7256 56.9073 34.8305 57.1883 34.8059 57.3577C34.6526 58.4337 34.4661 59.5045 34.277 60.5748C34.1904 61.0653 34.0702 61.5494 33.9653 62.0359C33.9039 62.0298 33.8418 62.0251 33.7805 62.0189C33.3032 60.2026 33.2463 58.3464 33.3365 56.2777ZM48.2529 61.0435C46.8271 60.4904 45.4927 59.9739 44.158 59.4563C44.1642 59.4025 44.1693 59.349 44.1755 59.2952C45.7103 58.9212 47.2593 58.8987 48.9193 59.1384C48.674 59.839 48.4621 60.4447 48.2529 61.0435ZM19.3541 66.1185C19.0132 66.4943 18.7015 66.8391 18.3513 67.2238C17.8505 66.6891 17.3879 66.2341 16.9827 65.7334C16.8916 65.6207 16.9262 65.2853 17.0308 65.1584C17.4582 64.6446 17.9257 64.1617 18.4034 63.6925C18.5147 63.5828 18.8382 63.4889 18.8717 63.5339C19.02 63.7288 19.1363 63.9688 19.1863 64.2101C19.2111 64.3279 19.0646 64.4799 18.9988 64.6187C18.5897 65.4816 18.5908 65.4813 19.3541 66.1185ZM48.4727 69.6459C46.7387 70.7399 45.6288 70.6503 44.7477 69.4309C45.0574 69.223 45.3649 69.0158 45.7024 68.7883C45.5101 68.4333 45.3329 68.1075 45.1558 67.7816C45.1884 67.7424 45.221 67.7032 45.2536 67.6641C46.2943 68.3038 47.3338 68.944 48.4727 69.6459ZM37.6492 57.3441C38.5189 56.8367 39.2739 56.358 40.0644 55.9466C40.6327 55.6505 41.0196 55.7937 41.4061 56.2966C41.6083 56.5592 41.6219 56.742 41.2913 56.9335C40.5786 57.3459 39.8942 57.8098 39.1809 58.22C39.038 58.3021 38.7599 58.3204 38.6365 58.2359C38.329 58.0244 38.0728 57.7365 37.6492 57.3441ZM24.055 53.3388C23.8699 54.6854 23.6982 54.8188 22.5665 54.7408C22.3557 54.726 22.1448 54.7147 21.9348 54.7141C20.6418 54.7095 20.6447 54.711 20.5165 53.4564C20.481 53.1103 20.4723 52.815 20.9346 52.7343C21.3737 52.6572 21.6752 52.7137 21.8125 53.2029C21.9225 53.5933 22.1006 53.9647 22.2356 54.311C22.8995 53.9561 23.4772 53.6474 24.055 53.3388ZM47.3618 54.2258C47.3523 54.0791 47.3527 53.9837 47.3381 53.8905C47.1516 52.6432 47.1822 52.6168 48.4354 52.5058C48.8034 52.4727 48.9538 52.585 48.998 52.9512C49.0828 53.6524 49.1888 54.3516 49.322 55.0448C49.4055 55.4785 49.1827 55.4758 48.8353 55.4626C48.9687 54.6715 48.4165 54.6512 47.915 54.6259C47.354 54.5963 46.79 54.6195 46.1036 54.6194C46.5874 54.4681 46.9519 54.354 47.3618 54.2258ZM35.1438 48.4987C34.8661 49.2432 34.598 49.9135 34.3695 50.598C34.2788 50.8702 34.2004 51.0769 33.8648 50.9502C33.5873 50.8464 33.1416 50.9255 33.2089 50.4157C33.2817 49.8656 33.3557 49.3152 33.4752 48.7746C33.5058 48.6359 33.7051 48.4396 33.8344 48.4341C34.2676 48.4156 34.7034 48.4712 35.1438 48.4987ZM37.5356 67.517C36.669 67.1968 35.8992 66.9188 35.1382 66.6223C35.0431 66.5857 34.99 66.4431 34.9172 66.35C35.0258 66.3016 35.1427 66.1986 35.243 66.2131C36.1479 66.3414 36.8648 66.7953 37.5356 67.517ZM28.5279 72.0583C28.2861 71.5994 27.7992 71.2606 28.1835 70.8025C28.3046 70.6585 28.7953 70.8199 29.2488 70.8506C28.9527 71.3462 28.7626 71.6651 28.5279 72.0583ZM19.8468 63.189C20.0595 62.2138 20.7836 61.9619 21.5491 61.7574C21.0039 62.2164 20.4572 62.6746 19.8468 63.189ZM41.1072 67.0982C41.15 67.0607 41.1918 67.0235 41.2338 66.9874C41.4837 67.2628 41.7336 67.5382 41.9842 67.8121C41.9336 67.8557 41.8833 67.9004 41.8327 67.944C41.5903 67.6615 41.3482 67.38 41.1072 67.0982Z" fill="#887DC0"/>
<rect x="20.821" y="32.7593" width="8" height="8" transform="rotate(95.6998 20.821 32.7593)" fill="#A08DFF"/>
<path d="M193.778 145.415C193.839 145.367 193.898 145.319 193.959 145.271C193.885 144.419 193.813 143.567 193.739 142.714C193.77 142.698 193.802 142.682 193.833 142.666C194.063 143.135 194.292 143.603 194.556 144.143C194.738 143.306 194.773 143.248 195.463 142.804C195.721 142.638 195.991 142.491 196.264 142.349C197.678 141.611 197.675 141.614 196.805 140.271C196.661 140.049 196.355 139.826 196.692 139.528C196.999 139.257 197.261 139.442 197.514 139.632C197.956 139.966 198.395 140.303 198.884 140.677C199.234 140.142 199.559 139.65 199.881 139.155C200.705 137.886 200.705 137.885 199.407 137.102C198.988 136.851 198.563 136.609 198.038 136.303C198.586 135.935 199.016 135.647 199.539 135.295C198.57 134.597 198.573 133.856 199.238 133.065C199.595 132.641 199.484 132.259 199.03 132.03C198.125 131.572 197.194 131.163 196.274 130.736C196.127 130.668 195.974 130.612 195.824 130.551C195.85 130.487 195.876 130.422 195.902 130.359C196.806 130.645 197.708 130.932 198.67 131.236C198.811 130.321 198.931 129.429 199.096 128.544C199.169 128.151 199.054 127.963 198.67 127.902C198.005 127.797 197.339 127.706 196.681 127.563C196.495 127.523 196.342 127.325 196.175 127.199C196.212 127.147 196.249 127.096 196.285 127.045C196.564 127.051 196.844 127.058 197.189 127.065C197.216 126.222 197.243 125.419 197.269 124.617C197.245 124.587 197.221 124.556 197.197 124.526C196.318 124.557 195.438 124.59 194.562 124.621C194.949 124.459 195.338 124.253 195.753 124.129C196.304 123.967 196.284 123.715 195.995 123.305C195.742 122.948 195.547 122.549 195.326 122.168C195.182 121.987 195.038 121.805 194.894 121.624C194.401 121.866 193.909 122.107 193.362 122.376C193.405 122.124 193.432 121.966 193.46 121.801C193.127 121.685 192.826 121.58 192.523 121.476C192.664 120.833 192.787 120.252 192.919 119.674C192.988 119.376 192.887 119.213 192.588 119.118C191.874 118.892 191.162 118.65 190.456 118.397C190.263 118.328 190.001 118.25 189.919 118.096C189.166 116.684 187.638 115.923 186.909 114.488C186.812 114.297 186.466 114.171 186.217 114.129C185.622 114.03 185.016 113.995 184.414 113.942C183.564 113.867 183.755 113.004 183.375 112.573C183.288 112.475 183.241 112.339 183.184 112.217C182.991 111.802 182.709 111.725 182.3 111.926C181.87 112.137 181.423 112.318 180.973 112.478C180.588 112.615 180.582 112.814 180.764 113.133C181.009 113.559 181.216 114.006 181.514 114.591C180.861 114.259 180.368 114.013 179.879 113.758C179.545 113.584 179.306 113.62 179.152 114.001C179.03 114.302 178.859 114.584 178.722 114.88C178.574 115.201 178.403 115.24 178.098 115.033C177.383 114.548 176.642 114.099 175.912 113.634C175.822 113.706 175.732 113.778 175.642 113.849C175.266 114.325 174.903 114.81 174.511 115.27C174.271 115.551 174.094 115.803 174.652 116.149C174.048 115.996 173.627 115.888 173.206 115.782C173.116 115.854 173.026 115.925 172.935 115.997C172.649 116.623 172.391 117.265 172.063 117.869C171.93 118.113 171.677 118.331 171.427 118.465C170.929 118.73 170.394 118.928 169.78 119.196C170.377 119.608 170.879 119.954 171.381 120.3C171.353 120.415 171.324 120.528 171.295 120.642C171.121 120.563 170.954 120.456 170.773 120.41C170.284 120.285 169.991 120.437 169.867 120.976C169.706 121.667 169.432 122.331 169.264 123.02C169.182 123.361 169.029 123.559 168.753 123.771C168.462 123.994 168.1 124.369 168.104 124.674C168.112 125.204 168.379 125.732 168.548 126.297C168.987 126.139 169.363 126.005 169.74 125.87C169.762 125.946 169.784 126.021 169.806 126.097C169.343 126.222 168.87 126.32 168.422 126.486C168.226 126.559 167.95 126.763 167.939 126.924C167.898 127.55 167.949 128.182 167.968 128.897C168.206 128.865 168.386 128.84 168.619 128.809C168.422 129.339 168.269 129.746 168.089 130.23C168.659 130.23 169.145 130.229 169.633 130.228C169.023 130.539 168.393 130.743 167.783 130.993C167.633 131.054 167.422 131.304 167.451 131.412C167.693 132.316 167.985 133.207 168.285 134.183C170.001 133.429 171.682 132.825 173.497 132.613C173.405 132.791 173.286 132.922 173.137 132.993C172.948 133.084 172.732 133.111 172.536 133.188C171.378 133.644 170.218 134.101 169.066 134.573C168.578 134.772 168.39 135.073 168.75 135.585C169.014 135.961 169.219 136.382 169.422 136.797C169.649 137.26 169.873 137.334 170.346 137.028C171.568 136.239 172.837 135.521 174.091 134.782C174.187 134.725 174.313 134.721 174.515 134.67C173.252 135.972 172.065 137.195 170.79 138.51C172.163 138.719 172.557 139.905 173.439 140.539C173.657 140.211 173.857 139.913 174.053 139.613C174.286 139.257 174.482 139.317 174.701 139.642C174.924 139.976 174.981 140.262 174.624 140.539C174.026 141.004 173.436 141.48 172.783 141.998C173.162 142.398 173.489 142.771 173.844 143.115C174.947 144.18 174.614 144.206 175.573 143.078C175.648 142.991 175.711 142.887 175.802 142.822C175.887 142.762 176.012 142.695 176.101 142.715C176.626 142.831 177.031 143.661 176.819 144.168C176.555 144.797 176.28 145.421 175.998 146.074C176.859 146.482 177.653 146.858 178.5 147.26C178.685 146.828 178.845 146.456 179.028 146.029C179.674 146.699 180.252 147.298 180.828 147.895C180.896 147.881 180.965 147.866 181.034 147.853C181.303 146.743 181.572 145.632 181.841 144.522C181.855 144.524 181.869 144.526 181.884 144.529C181.842 145.226 181.8 145.923 181.758 146.62C182.11 146.516 182.532 146.392 183.107 146.223C182.896 146.653 182.785 146.938 182.623 147.192C182.432 147.492 182.452 147.697 182.765 147.906C183.309 148.269 183.842 148.651 184.359 149.053C184.691 149.313 184.922 149.259 185.189 148.96C186.046 148.003 186.441 146.866 186.546 145.605C186.564 145.401 186.58 145.197 186.606 144.896C186.9 144.991 187.136 145.066 187.41 145.153C187.5 144.773 187.562 144.512 187.625 144.252C187.654 144.255 187.682 144.259 187.711 144.263C187.674 145.157 187.637 146.052 187.598 147.01C188.112 147.019 188.608 147.026 189.102 147.034C190.991 147.066 190.99 147.066 190.751 145.153C190.719 144.89 190.708 144.625 190.688 144.36C190.756 144.353 190.821 144.345 190.889 144.337C190.967 144.773 191.044 145.21 191.128 145.674C192.029 145.584 192.905 145.499 193.778 145.415ZM180.313 132.689C180.577 132.671 180.855 132.59 181.103 132.648C182.593 132.996 183.993 133.569 185.253 134.459C186.759 135.523 187.873 136.888 188.426 138.664C188.483 138.848 188.413 139.24 188.309 139.277C187.594 139.528 186.855 139.71 186.078 139.927C185.487 136.409 182.977 134.547 180.313 132.689ZM184.11 121.538C184.06 121.574 184.012 121.611 183.962 121.648C183.631 120.734 183.323 119.813 182.963 118.911C182.594 117.984 182.174 117.077 181.776 116.161C181.726 116.046 181.68 115.927 181.6 115.729C182.137 115.616 182.628 115.55 183.094 115.406C183.661 115.229 183.976 115.445 184.264 115.923C185.339 117.716 185.637 119.658 185.465 121.699C185.458 121.783 185.4 121.861 185.361 121.953C184.921 121.807 184.516 121.672 184.11 121.538ZM196.268 135.796C197.545 136.522 198.716 137.175 199.866 137.863C199.961 137.92 199.997 138.255 199.924 138.385C199.657 138.87 199.325 139.32 199.033 139.792C198.87 140.056 198.693 140.058 198.466 139.887C198.112 139.621 197.778 139.315 197.394 139.105C195.573 138.113 193.747 137.128 191.899 136.186C191.47 135.967 191.153 135.816 191.388 135.275C191.444 135.147 191.446 134.996 191.5 134.714C192.982 135.609 194.383 136.456 195.814 137.32C195.954 136.85 196.084 136.415 196.268 135.796ZM176.47 131.197C175.594 131.507 174.831 131.816 174.044 132.049C172.374 132.543 170.688 132.983 169.02 133.482C168.65 133.592 168.456 133.609 168.352 133.183C168.243 132.735 168.099 132.294 167.936 131.861C167.794 131.482 167.908 131.269 168.284 131.18C169.626 130.865 170.968 130.55 172.314 130.245C172.434 130.218 172.569 130.26 172.711 130.271C172.745 130.696 172.776 131.088 172.813 131.548C174.027 131.152 175.192 130.97 176.47 131.197ZM175.821 124.641C175.874 124.561 175.893 124.498 175.935 124.472C176.388 124.184 176.839 123.897 177.297 123.619C178.061 123.156 178.144 123.165 178.683 123.895C179.791 125.399 180.448 127.096 180.678 128.937C180.771 129.675 180.512 130.381 180.136 131.136C179.431 128.542 179.777 128.002 175.821 124.641ZM183.093 135.497C184.572 136.799 185.632 138.315 185.685 140.381C185.9 140.337 186.076 140.254 186.229 140.283C186.414 140.318 186.695 140.41 186.741 140.544C187.144 141.721 187.326 142.932 187.231 144.18C187.203 144.546 187.036 144.636 186.697 144.543C186.289 144.431 185.879 144.319 185.461 144.254C185.019 144.186 184.928 143.975 184.969 143.543C185.194 141.157 184.789 138.87 183.742 136.702C183.545 136.292 183.31 135.899 183.093 135.497ZM173.924 120.307C174.003 119.785 174.094 119.296 174.147 118.804C174.19 118.417 174.374 118.289 174.756 118.315C175.873 118.391 176.894 118.74 177.849 119.323C178.195 119.535 178.414 119.76 178.166 120.175C179.075 120.332 179.937 121.01 179.703 121.374C179.553 121.389 179.393 121.404 179.207 121.424C179.569 122.066 179.905 122.664 180.24 123.262C178.104 121.167 177.416 120.831 173.924 120.307ZM188.298 129.417C188.293 129.346 188.288 129.275 188.283 129.204C188.469 129.151 188.652 129.059 188.839 129.053C189.891 129.009 190.945 129.003 191.994 128.947C192.488 128.92 193.064 129.389 193.472 128.74C193.489 128.713 193.582 128.725 193.639 128.733C194.227 128.814 194.819 128.881 195.4 128.999C195.51 129.021 195.671 129.274 195.649 129.389C195.538 129.972 195.387 130.549 195.215 131.116C195.18 131.231 194.973 131.396 194.878 131.375C194.185 131.228 193.492 131.068 192.816 130.857C191.536 130.457 190.268 130.02 188.994 129.603C188.766 129.527 188.531 129.477 188.298 129.417ZM188.262 129.787C189.197 130.044 190.035 130.248 190.856 130.505C192.387 130.983 192.385 130.997 191.818 132.463C191.658 132.879 191.483 133.288 191.317 133.693C190.358 133.137 189.494 132.64 188.632 132.134C188.553 132.087 188.5 131.997 188.429 131.936C188.181 131.723 187.962 131.42 187.675 131.321C187.001 131.092 186.295 130.962 185.602 130.791C186.236 130.641 186.879 130.51 187.525 130.503C187.975 130.499 188.275 130.448 188.262 129.787ZM192.385 132.247C192.579 131.257 192.595 131.242 193.462 131.428C193.799 131.5 194.135 131.584 194.469 131.673C195.342 131.906 195.341 131.908 195.656 131.101C195.667 131.071 195.712 131.053 195.866 130.931C196.668 131.282 197.561 131.622 198.406 132.057C199.139 132.434 199.123 132.517 198.709 133.253C198.567 133.503 198.41 133.745 198.287 134.003C198.128 134.335 197.971 134.354 197.618 134.189C196.459 133.645 195.278 133.143 194.085 132.677C193.555 132.47 192.975 132.392 192.385 132.247ZM182.141 145.997C182.184 145.074 182.318 144.149 182.246 143.239C182.17 142.281 182.403 141.416 182.67 140.537C182.742 140.301 182.672 139.976 183.094 139.977C183.49 139.976 183.637 140.177 183.697 140.524C183.976 142.154 184.263 143.784 184.539 145.414C184.561 145.537 184.53 145.67 184.53 145.706C183.704 145.805 182.934 145.899 182.141 145.997ZM179.129 132.866C179.108 132.897 179.095 132.941 179.066 132.958C177.946 133.613 176.819 134.256 175.706 134.923C175.408 135.102 175.246 134.997 175.096 134.753C174.794 134.261 174.51 133.757 174.188 133.277C173.931 132.894 174.036 132.658 174.396 132.431C175.21 131.918 176.103 131.663 177.054 131.585C178.212 131.491 178.608 131.742 179.129 132.866ZM176.401 117.661C176.401 117.652 176.392 117.609 176.408 117.579C177.528 115.47 178.081 115.333 180.32 116.198C181.815 116.776 182.408 117.883 182.666 119.36C182.141 118.865 181.655 118.38 181.143 117.927C180.504 117.363 180.507 117.385 179.924 118.003C179.761 118.175 179.472 118.387 179.284 118.351C178.33 118.166 177.39 117.905 176.401 117.661ZM169.687 122.888C169.875 122.269 170.05 121.766 170.175 121.252C170.271 120.858 170.46 120.723 170.868 120.792C172.151 121.004 173.281 121.564 174.316 122.323C174.43 122.407 174.467 122.734 174.404 122.896C174.273 123.238 174.053 123.545 173.772 124.037C174.455 124.057 174.987 124.072 175.606 124.091C175.321 124.408 175.144 124.605 174.9 124.877C173.259 124.16 171.806 122.762 169.687 122.888ZM184.764 122.153C185.164 122.328 185.594 122.53 186.036 122.703C186.367 122.832 186.481 123.041 186.384 123.376C186.133 124.26 185.85 125.136 185.637 126.029C185.286 127.498 183.918 127.958 182.925 128.827C183.21 127.716 183.626 126.669 183.94 125.591C184.26 124.493 184.478 123.367 184.764 122.153ZM168.346 128.373C168.327 128.083 168.333 127.854 168.296 127.631C168.195 127.024 168.462 126.798 169.053 126.704C170.604 126.454 172.144 126.443 173.685 126.757C173.951 126.811 174.408 126.763 174.239 127.259C174.103 127.656 174.372 128.353 173.521 128.297C172.528 128.232 171.533 128.191 170.539 128.199C169.836 128.204 169.133 128.307 168.346 128.373ZM190.652 126.001C190.619 125.962 190.587 125.922 190.554 125.883C190.685 125.59 190.815 125.298 190.999 124.883C190.495 124.934 190.076 124.977 189.483 125.037C189.802 124.813 189.974 124.669 190.168 124.561C191.324 123.92 192.474 123.267 193.646 122.658C194.797 122.061 194.797 122.089 195.478 123.162C195.723 123.549 195.692 123.745 195.25 123.938C194.162 124.412 193.097 124.941 192.018 125.436C191.57 125.64 191.107 125.814 190.652 126.001ZM178.167 133.702C178.205 133.761 178.242 133.818 178.28 133.876C177.803 134.594 177.013 134.886 176.305 135.291C176.167 135.37 175.93 135.521 175.947 135.592C176.051 136.047 175.692 136.155 175.442 136.328C174.89 136.71 174.332 137.083 173.764 137.438C173.471 137.622 173.442 137.787 173.637 138.084C174.193 138.924 174.139 139.162 173.312 139.846C172.772 139.315 172.23 138.782 171.609 138.171C172.423 137.347 173.211 136.518 174.033 135.726C174.664 135.119 174.684 135.139 175.352 135.627C176.291 134.985 177.229 134.343 178.167 133.702ZM189.511 120.593C190.322 120.69 191.08 120.777 191.836 120.883C191.925 120.895 192.08 121.04 192.068 121.081C191.827 121.874 191.787 122.892 191.26 123.395C190.371 124.242 189.171 124.761 187.993 125.485C189.037 123.962 190.314 122.637 189.511 120.593ZM191.022 136.869C191.002 136.942 191.002 136.92 191.013 136.91C191.023 136.902 191.053 136.897 191.062 136.905C191.378 137.186 191.712 137.449 192.004 137.753C193.036 138.834 193.932 140.003 194.347 141.477C194.45 141.846 194.392 142.054 193.988 142.148C193.523 142.256 193.072 142.429 192.607 142.539C192.467 142.573 192.205 142.541 192.16 142.455C191.801 141.761 191.48 141.045 191.114 140.268C191.508 140.143 191.861 140.008 192.226 139.92C192.63 139.823 192.741 139.64 192.511 139.273C192.022 138.491 191.54 137.706 191.022 136.869ZM178.726 139.854C178.798 139.945 178.857 140.049 178.943 140.122C179.396 140.511 179.397 140.9 179.005 141.335C178.712 141.661 178.488 142.054 178.175 142.355C177.056 143.434 177.155 143.195 176.385 142.395C176.305 142.311 176.213 142.241 176.131 142.16C175.669 141.696 175.684 141.597 176.14 141.143C176.544 140.739 176.946 140.327 177.294 139.876C178.013 138.95 177.999 138.937 178.726 139.854ZM173.23 124.441C172.747 124.45 172.365 124.461 171.982 124.463C171.491 124.467 171.097 124.57 171.205 125.16C170.479 125.342 169.795 125.52 169.107 125.678C168.997 125.703 168.821 125.682 168.752 125.609C168.362 125.203 168.436 124.428 168.913 124.112C170.436 123.104 171.412 123.215 173.23 124.441ZM187.907 128.339C187.89 128.864 187.915 129.294 187.845 129.707C187.818 129.861 187.594 130.06 187.427 130.098C186.368 130.342 185.301 130.552 184.235 130.761C183.746 130.856 183.251 130.918 182.759 130.995C182.743 130.935 182.725 130.875 182.709 130.816C184.232 129.718 185.944 128.998 187.907 128.339ZM188.819 143.971C188.823 142.442 188.826 141.011 188.829 139.58C188.882 139.566 188.933 139.552 188.986 139.538C189.886 140.836 190.464 142.273 190.837 143.909C190.095 143.931 189.453 143.951 188.819 143.971ZM173.699 118.826C173.226 118.643 172.792 118.476 172.307 118.288C172.626 117.628 172.884 117.033 173.206 116.475C173.278 116.35 173.604 116.261 173.76 116.313C174.393 116.528 175.012 116.79 175.621 117.067C175.763 117.132 175.967 117.4 175.937 117.447C175.809 117.656 175.627 117.851 175.419 117.984C175.318 118.049 175.124 117.967 174.971 117.956C174.018 117.884 174.019 117.885 173.699 118.826ZM180.871 147.268C179.227 146.042 178.911 144.975 179.733 143.714C180.038 143.928 180.342 144.141 180.675 144.374C180.938 144.067 181.178 143.785 181.418 143.502C181.467 143.519 181.515 143.535 181.563 143.551C181.34 144.752 181.116 145.953 180.871 147.268ZM188.461 132.747C189.247 133.376 189.965 133.908 190.633 134.498C191.114 134.922 191.119 135.335 190.789 135.876C190.616 136.159 190.451 136.237 190.153 135.998C189.512 135.481 188.833 135.009 188.194 134.491C188.066 134.387 187.949 134.134 187.984 133.988C188.071 133.625 188.247 133.283 188.461 132.747ZM187.314 118.621C185.991 118.932 185.805 118.82 185.471 117.736C185.409 117.534 185.344 117.333 185.269 117.137C184.808 115.928 184.808 115.932 185.933 115.361C186.243 115.204 186.516 115.089 186.757 115.492C186.987 115.874 187.042 116.176 186.635 116.479C186.31 116.722 186.028 117.022 185.753 117.273C186.323 117.765 186.818 118.193 187.314 118.621ZM194.861 140.69C194.995 140.628 195.084 140.594 195.166 140.547C196.263 139.925 196.298 139.944 196.852 141.074C197.015 141.405 196.965 141.586 196.639 141.759C196.015 142.09 195.401 142.44 194.802 142.813C194.427 143.047 194.349 142.838 194.237 142.509C195.023 142.35 194.844 141.827 194.687 141.35C194.513 140.816 194.289 140.298 194.042 139.657C194.357 140.054 194.595 140.353 194.861 140.69ZM195.816 127.23C195.021 127.238 194.299 127.229 193.578 127.262C193.292 127.275 193.071 127.276 193.068 126.917C193.065 126.621 192.831 126.233 193.331 126.113C193.871 125.983 194.411 125.855 194.959 125.772C195.099 125.751 195.354 125.866 195.405 125.985C195.578 126.382 195.683 126.809 195.816 127.23ZM178.927 136.296C178.914 135.372 178.897 134.554 178.901 133.737C178.9 133.635 179.015 133.535 179.075 133.433C179.159 133.517 179.298 133.589 179.32 133.688C179.525 134.579 179.36 135.411 178.927 136.296ZM171.452 129.522C171.794 129.131 171.935 128.555 172.5 128.749C172.678 128.81 172.704 129.326 172.838 129.761C172.269 129.662 171.904 129.6 171.452 129.522ZM176.61 118.233C177.596 118.082 178.091 118.667 178.557 119.308C177.933 118.964 177.309 118.618 176.61 118.233ZM180.601 139.479C180.652 139.505 180.701 139.531 180.75 139.557C180.583 139.889 180.416 140.221 180.25 140.554C180.191 140.522 180.132 140.491 180.073 140.46C180.249 140.132 180.425 139.805 180.601 139.479Z" fill="#887DC0"/>
</svg>
